<svg xmlns="http://www.w3.org/2000/svg" width="658.73" height="150.69" viewBox="0 0 658.73 150.69"><defs><style>.cls-1{fill:#f38230;}</style></defs><title>Asset 3</title><g id="Layer_2" data-name="Layer 2"><g id="Layer_1-2" data-name="Layer 1"><path class="cls-1" d="M578.31,85.48c.31-.56.62-1.11.91-1.68a84.67,84.67,0,0,1,10.11-16.26c3.26-3.86,6.34-4.15,10.3-1,1.49,1.18,1.54,2,.08,3.26C596,73,594.43,77.26,593.89,82c-.25,2.13.84,3.78,2.29,3.83A3.82,3.82,0,0,0,600,82.18c.4-7,6.64-12.85,13.42-12.59a9.45,9.45,0,0,1,2.67.58c4.55,1.63,9,10.64,4.36,16.35-1.78,2.2-7.27,1.66-8.39-.93a1.41,1.41,0,0,1,.54-1.2,5.85,5.85,0,0,0,2.65-7.11c-.22-.63-.83-1.57-1.24-1.56a2.7,2.7,0,0,0-1.9,1.14,12.87,12.87,0,0,0-1.95,8.46c.36,3,1.07,6,1.65,9.12,3.57-1.15,6.75-2.24,10-3.18a75.61,75.61,0,0,1,22.91-3.15,69.85,69.85,0,0,1,10,1.11,5,5,0,0,1,3.08,7.88,2.06,2.06,0,0,1-1.74.71c-15.1-3.67-29.88-2.14-44.41,2.78A106.58,106.58,0,0,0,598.91,106a26.09,26.09,0,0,0-5.86,4.37,4.58,4.58,0,0,0-1.37,5.23c.83,1.94,2.82,2.48,4.75,2.66a7.77,7.77,0,0,0,8.54-6.92,7.85,7.85,0,0,0-.15-2.51c-.13-.66-.25-1.32-.44-2.37l8.52-3.3a11.38,11.38,0,0,1-3.48,13,19.19,19.19,0,0,1-15.71,4.08c-5.17-.86-7.64-6.07-4.88-10.53a20.2,20.2,0,0,1,4.69-4.85,68.49,68.49,0,0,1,7.51-5,1.87,1.87,0,0,0,1.11-2.33c-.72-3.16-1.43-6.33-2.17-9.61a5.06,5.06,0,0,0-.94.27,8.61,8.61,0,0,1-11-2.88,7.12,7.12,0,0,1-.81-5.86c.48-2.2,1.3-4.33,2-6.5a2.71,2.71,0,0,0,.11-1.71c-.62.86-1.32,1.68-1.86,2.59a95.23,95.23,0,0,0-9.06,21.72c-1.75,5.8-3,11.76-4.55,17.62a1.82,1.82,0,0,1-1.43,1.11c-2.37-.44-4.71-1.46-5.54-3.78-.57-1.59-.16-3.59,0-5.38.46-4.14,1.06-8.25,1.22-12.56-.3.58-.61,1.16-.88,1.75-2.82,6.1-5.72,12.15-10.16,17.28-1.91,2.2-4,4.33-6.94,5-6.5,1.4-15.15-1.53-16.25-11.52a93.46,93.46,0,0,1-.06-9.76,9.84,9.84,0,0,0-.9.5q-3.93,2.75-7.82,5.53a10.53,10.53,0,0,0-1.46,1.37,69.47,69.47,0,0,1-4.91,5.24c-4.39,3.82-7.49,5.31-14,2-.35,1.79-.72,3.49-1,5.2a172.89,172.89,0,0,0-2.32,25.49c0,2.13-.67,2.63-2.75,2a17.24,17.24,0,0,1-3-1.28,4.45,4.45,0,0,1-2.6-4.65c.27-4.42.31-8.85.55-13.27.08-1.39-.46-1.86-1.74-1.92-12.41-.54-24.81-1.37-37.23-.14-6.17.62-12.37,1-18.54,1.57-2.08.2-4.14.7-6.21,1.07v.59c4.17,1.2,8.45,2.1,12.46,3.68s7.77,3.85,11.82,5.91c.06-.43.15-.93.19-1.43.15-2.4.23-4.79.46-7.18,0-.46.58-1.22.94-1.25,2.67-.25,5.36-.35,8.22-.5-.38,3.54-.77,6.81-1.07,10.09-.16,1.78-.24,3.56-.26,5.34,0,1.35-.56,1.86-1.91,1.79-2.58-.14-4.66-1.39-6.72-2.77-3.26-2.19-6.47-4.49-9.9-6.41-5.9-3.31-12.41-4.92-19.05-6a6,6,0,0,1-4.71-6.84,1.58,1.58,0,0,1,1.71-1.42,1.69,1.69,0,0,1,.49.13c7.32,2,14.64.9,22,.06,3.36-.39,6.71-.81,10-1.35a2.23,2.23,0,0,0,1.51-1.4c1.43-7.78,2.75-15.58,4.1-23.38a5,5,0,0,0-.39-.77,27.68,27.68,0,0,1-2.87,3.25,76.8,76.8,0,0,0-11.54,11.26,14,14,0,0,1-8.78,5,11.06,11.06,0,0,1-11.13-4.18,14.31,14.31,0,0,1-3.17-11c.82-7.71,3-15,8-21.08a31.47,31.47,0,0,1,5.16-4.69c1.91-1.5,4.12-1.31,6.33-.64,1.8.54,3.6,1.11,5.43,1.52,5.22,1.17,9.09,5.18,8.77,9.49a72.42,72.42,0,0,1-1.29,8.54c-.33,1.72-1,3.39-1.44,5.09.19,0,.36.12.4.07,4.08-3.72,7.65-7.78,9.34-13.21.89-2.87,1.93-5.69,3-8.51A2.48,2.48,0,0,1,469,70a2.56,2.56,0,0,1,.71.28c2.09.88,4.2,1.7,6.25,2.66,1.32.61,1.51,1.45.54,2.77a22.77,22.77,0,0,0-3.7,9.48c.48-.76.93-1.56,1.46-2.28,2.77-3.82,5.31-7.85,8.44-11.36,2.62-2.93,6-2.66,9-.1,4.52,3.76,4.92,8.59,3.3,13.73-1.22,3.85-2.89,7.55-4.36,11.32-.22.55-.46,1.08-.92,2.15a11.56,11.56,0,0,0,1.6-1c1.39-1.31,2.76-2.63,4.11-4a17.07,17.07,0,0,0,4.6-8.8,146.77,146.77,0,0,1,4.25-14.65c1.14-3.39,1.89-3.65,5.19-2.48a48.05,48.05,0,0,1,5.51,2.52c1.1.55,1.18,1.35.41,2.41a23.21,23.21,0,0,0-3.83,9.66c.31-.48.62-1,.94-1.44,2.21-3.32,4.3-6.74,6.7-9.94,1.94-2.58,4.29-5.11,8-4.09a9.55,9.55,0,0,1,7,7.61,18.24,18.24,0,0,1-.57,8.11c-1.08,3.81-2.83,7.44-4.29,11.15a5.34,5.34,0,0,0-.5,1.74c3.28-2.41,6.34-5,8.15-8.72,2-4.17,4.28-8.11,8-11.11a11.62,11.62,0,0,1,18.38,5.82c.89,3.26-.15,6.36-1.94,9.12a23.14,23.14,0,0,1-16.79,10.54c-1.47.21-1.81.84-1.6,2a23.91,23.91,0,0,0,1.22,5.34c1.61,3.75,5.63,4.9,8.85,2.44a23.5,23.5,0,0,0,4.87-5.23c4.45-6.33,7.38-13.46,10.15-20.63,2.35-6.06,4.41-12.24,6.64-18.35.89-2.44,1.47-2.66,3.87-1.84a10.41,10.41,0,0,1,1,.4c4,1.71,4,2,2.63,6-1.46,4.23-2.73,8.53-4.06,12.81a10.46,10.46,0,0,0-.24,1.36ZM446.4,79.39a27.62,27.62,0,0,0-.53-3.71c-.72-2.59-2.69-3.38-5-2a10.94,10.94,0,0,0-3,2.71,34.59,34.59,0,0,0-6.67,23.93c.24,3,.62,3.37,3.46,2.72,1.94-.44,4.29-.2,5.52-2.37A49.3,49.3,0,0,0,446.4,79.39ZM524.57,76a2.91,2.91,0,0,0,0-1.1c-.37-.85-.67-2.11-1.32-2.34s-1.67.57-2.46,1a4.11,4.11,0,0,0-1,1.12,62.82,62.82,0,0,0-9.32,15.63c-1.68,4.08-3.1,8.28-4.47,12.47-.7,2.13-.17,2.8,2,3.47a4.81,4.81,0,0,0,5.14-1.67,31.29,31.29,0,0,0,3.71-5A54,54,0,0,0,524.57,76Zm-58,31.59c4.3,1.64,7.76.51,10-2.78a54.1,54.1,0,0,0,8.32-19.9,42.43,42.43,0,0,0,.77-7.29,2.66,2.66,0,0,0-1.25-2.16c-.61-.22-1.61.46-2.35.9A4.92,4.92,0,0,0,481,77.56a70,70,0,0,0-11.07,19.87c-1.13,3.31-2.13,6.7-3.31,10.12Zm30.94-12c-.78.71-1.2,1.13-1.66,1.49-2.82,2.18-5.65,4.32-8.45,6.52-1.08.85-2.13,1.74-3.12,2.69-2,1.92-3.84,4-5.89,5.81a9.3,9.3,0,0,1-8.4,2.28,31.72,31.72,0,0,1-4.13-1.48c-.14,1-.27,2-.39,3h28.78c1.1-6.74,2.15-13.29,3.29-20.32Zm45.67,3a5.85,5.85,0,0,0,4.94-1.48c4.57-3.42,6.92-8.16,7.82-13.7a10.2,10.2,0,0,0,.13-2.92c-.28-2.11-1.87-2.83-3.55-1.57a14.25,14.25,0,0,0-2.85,2.85c-3.65,5-5.5,10.61-6.46,16.84Z"/><path class="cls-1" d="M297.32,59.3c-1.24,4.64-2.57,9-3.55,13.4-2.14,9.64-4.14,19.31-6.1,29a31.93,31.93,0,0,0-.42,5.69,2,2,0,0,0,.86,1.45c.21.15,1-.29,1.33-.66,2.32-3,4.61-6.06,6.83-9.16a2.49,2.49,0,0,0,.14-1.72C294.06,85.21,298,75,306,66.21a10.64,10.64,0,0,1,6.85-3.69c5.1-.46,8.47,2.44,11.29,6.12,2.54,3.33,1.75,7,0,10.27-3.68,6.88-9.68,10.64-17.29,11.79-1.49.23-1.95.73-1.81,2.06a28.39,28.39,0,0,0,.36,2.92c1.09,5,4.23,6.94,9.25,5.76a25.74,25.74,0,0,0,13.44-8.31c1.13-1.26,1.07-3.66,1.4-5.57,2.77-15.59,5.71-31.14,10.73-46.21A46.81,46.81,0,0,1,342.62,36a2,2,0,0,1,2.5-1.32,1.51,1.51,0,0,1,.35.14,15.46,15.46,0,0,0,1.77.49c5.95,2,6.65,3.12,7.26,9.41,1.53,15.9-3.37,29.53-14.13,41.21a4.83,4.83,0,0,0-1,2.29q-1.53,8.52-2.94,17a17.11,17.11,0,0,0,0,2.48c.6-.34,1-.53,1.38-.79a61.94,61.94,0,0,0,19-23.36c.51-1,1-2.14,2.43-1.54s1.21,1.83.66,2.94a79.37,79.37,0,0,1-14.35,20.47,57.19,57.19,0,0,1-9,7.2,7.1,7.1,0,0,1-4.56.84c-3-.39-4.42-2.56-4.6-6.39-.07-1.59.13-3.19.2-4.79.05-1.07.11-2.15.18-3.64-1.54,1.18-2.71,2.13-3.94,3-3.65,2.61-7.6,4.61-12.13,5-5,.39-9.69-.64-13.23-5-.77,1.09-1.32,2-2,2.85a90.9,90.9,0,0,1-7.18,8.13,6.09,6.09,0,0,1-9.46-1.37,6.33,6.33,0,0,1-.76-2.24c-.48-3.39-.06-6.92.1-10.39.1-2.13.5-4.24.77-6.36l-.74-.65a6.72,6.72,0,0,1-1,1.89c-2.8,2.57-5.69,5-8.5,7.6a2.77,2.77,0,0,0-1,1.7,12,12,0,0,1-4.92,10A19.85,19.85,0,0,1,249.46,117c-3.12-.25-5.77-2.29-6.3-4.83a6.76,6.76,0,0,1,3.61-7.59,38.11,38.11,0,0,1,7.45-1.77c1.37-.27,2.8-.3,4.77-.49-1.12-4.46-2.2-8.72-3.39-13.46-.7.92-1.11,1.42-1.49,1.95a42.25,42.25,0,0,1-10.53,10.26,13.9,13.9,0,0,0-2,2.06c-1.94,2.12-3.66,4.51-5.83,6.36-4,3.37-8.67,4.73-13.54,2.41s-7.57-6.78-7.49-12.38a38,38,0,0,1,7.92-23.12,27.24,27.24,0,0,1,4.84-4.51c2.25-1.76,4.75-1.64,7.32-.58a18.37,18.37,0,0,0,3.84,1.12,13.23,13.23,0,0,1,7,3.38,7.76,7.76,0,0,1,2.57,5.9A38.61,38.61,0,0,1,246.08,94c-.19.56-.35,1.13-.67,2.18a10.34,10.34,0,0,0,1.46-1.1c1.84-2.14,3.72-4.26,5.47-6.48a11.69,11.69,0,0,0,2.67-8c-.18-6,5.29-11.58,11.16-11.89,4.09-.21,6.88,1.76,8.63,6.11,1.17,2.93,1.48,5.8-.27,8.66-1.51,2.47-2.44,2.91-5.15,1.93a30.41,30.41,0,0,1-3.49-1.82c3.35-1.86,4.48-4.34,3.75-7.49-.2-.88-1-2.17-1.68-2.24s-1.87.85-2.34,1.63a14.06,14.06,0,0,0-1.71,7.62A38.2,38.2,0,0,0,267.69,99a42.74,42.74,0,0,0,4.85-3.83c2.29-2.4,4.36-5,6.46-7.56,3.08-3.75,3.42-8.45,4.39-12.93.92-4.25,1.91-8.49,2.79-12.76.24-1.12.65-1.63,1.9-1.72C291,60.06,294,59.66,297.32,59.3ZM238.66,82l0-1.45c-.15-2-.2-4.18-2.49-5s-3.86.93-5.34,2.41l-.28.34a62.25,62.25,0,0,0-4,6.94c-2.49,5.75-3.78,11.77-2.85,18.1.36,2.48,1.26,3,3.78,2.6a8.06,8.06,0,0,0,6-4.62A48.12,48.12,0,0,0,238.66,82Zm66.57,6.25.53.56a22.29,22.29,0,0,0,4.49-2c4.7-3.47,7.1-8.33,7.84-14,.21-1.62.77-3.58-1.12-4.43-2.06-.93-3.26.92-4.4,2.21a29.22,29.22,0,0,0-5.78,11.2C306.15,83.85,305.78,86.06,305.23,88.25Zm36.21-10.16c6.21-5.24,12-27.11,8.87-33-3.9,10.71-6.32,21.62-8.87,33Zm-82.66,27.1c-3.43.4-6.43.57-9.34,1.15A3.4,3.4,0,0,0,250.9,113a3,3,0,0,0,.6-.19C255,111.62,257.23,109.16,258.78,105.19Z"/><path class="cls-1" d="M75.46,0a75.11,75.11,0,0,1,75.33,74.89c0,.5,0,1,0,1.48-.52,42-35,74.5-75.78,74.32A75.43,75.43,0,0,1,0,75C.19,32.59,34.93-.36,75.46,0Zm-.19,5.41C37.45,5.26,5.48,35.82,5.14,74.64a70.11,70.11,0,1,0,71-69.22Z"/><path class="cls-1" d="M187,69.87l10.16-1.17a37.9,37.9,0,0,1,5.31-.53c1.69,0,2.18-.69,2.49-2.15a166.84,166.84,0,0,1,8.2-27.3c1.26-3.19,2.87-6.24,4.38-9.33.68-1.4,1.74-1.82,3.35-1.32,2.82.88,5.6,1.76,7.88,3.79C224,39.73,220.92,48.21,218,56.75c-.73,2.15-1.29,4.36-2,6.51-.93,2.75-1.33,5.35.35,8.06,1,1.6.47,2.33-1.47,2.49a1.88,1.88,0,0,0-2,1.74v.18c-1.23,9.56-2.51,19.1-3.7,28.65-.27,2.19-.28,4.42-.39,6.63-.07,1.47-.67,2.21-2.24,1.7a21.13,21.13,0,0,1-2.44-.81c-3.18-1.46-3.88-2.54-3.65-6,.67-10.1,1.41-20.2,2.13-30.58-.88.09-2.11.18-3.32.35-4.32.58-8.64,1.15-12.94,1.85A2.22,2.22,0,0,0,184.91,79c-.84,6.69-1.69,13.39-2.27,20.12-.61,7.09-.95,14.22-1.36,21.33-.09,1.5-.71,2-2.13,1.52a25.44,25.44,0,0,1-2.94-1,4.85,4.85,0,0,1-3.13-5.08c.82-12.57,1.52-25.14,2.26-37.71a6.22,6.22,0,0,0-.14-1,27.06,27.06,0,0,0-2.86.53c-1.28.37-2.24.06-2.7-1.18a55,55,0,0,1-1.86-5.79c-.28-1.13,0-2,1.67-1.7a53.22,53.22,0,0,0,6.44.16c1.32,0,1.2-1,1.39-1.79,1.88-7.56,3.59-15.16,5.66-22.67a108.66,108.66,0,0,1,4-10.48,2.39,2.39,0,0,1,2.91-1.72l.33.11a75.17,75.17,0,0,1,6.94,2.89c.45.22.93,1.49.71,1.83-3.48,5.27-5.05,11.31-6.88,17.22-1.38,4.45-2.45,9-3.64,13.5C187.19,68.56,187.16,69.05,187,69.87Z"/><path class="cls-1" d="M393.52,69.88l10.19-1.18a34.86,34.86,0,0,1,5.3-.53c1.72.06,2.09-.77,2.49-2.16,2.55-8.84,5.08-17.68,7.88-26.43A64.68,64.68,0,0,1,423.71,30c1.27-2.47,1.76-2.61,4.42-1.75s5.18,1.59,7.15,3.67c-4.52,7.18-7.34,15-10.11,22.9-1.07,3.06-1.8,6.25-2.86,9.32a7.45,7.45,0,0,0,.39,6.66c1.19,2,.82,2.81-1.64,3.13a2.22,2.22,0,0,0-1.5,1.43c-1.09,6.59-2.2,13.19-3,19.82-.6,4.8-.81,9.66-1.16,14.5-.08,1.09-.62,1.48-1.67,1.48a6.31,6.31,0,0,1-6.66-5.94,6.19,6.19,0,0,1,0-.86c.67-9.61,1.41-19.21,2.14-29.12l-5.91.79c-3.4.47-6.8,1-10.21,1.37-1.08.12-1.56.55-1.67,1.54-.75,6.71-1.64,13.41-2.22,20.13-.6,7.1-.94,14.22-1.35,21.33-.09,1.52-.75,2-2.16,1.5-.86-.3-1.77-.5-2.6-.88-2.31-1.06-3.62-2.62-3.45-5.45.65-11,1.12-22.1,1.69-33.14a35.94,35.94,0,0,1,.55-4c.17-1-.2-1.41-1.21-1.17a.2.2,0,0,0-.17.06c-3.95.65-4,.65-5.29-3.23a17.09,17.09,0,0,1-.87-3.74A1.79,1.79,0,0,1,375.5,69a53.27,53.27,0,0,1,6.06.19c1.45.13,2-.41,2.32-1.83,1.28-5.81,2.49-11.64,4.11-17.36,1.43-5.07,3.23-10,5.13-15C394.24,32.17,395,32,398,33a41,41,0,0,1,5.69,2.57c.46.24.92,1.5.69,1.84-3.48,5.2-5,11.17-6.82,17-1.38,4.52-2.48,9.12-3.69,13.68A15.61,15.61,0,0,0,393.52,69.88Z"/><path class="cls-1" d="M237.53,48.17C248,54.65,259.44,55.38,271,55.33c5.26,0,10.51-.86,15.77-1.33,1-.09,1.53-.64,1.86-1.68a87.61,87.61,0,0,1,3.13-8.82c1-2.23,1.85-2.5,4.13-1.66a47.39,47.39,0,0,1,5.34,2.41c1.26.65,1.43,1.53.61,2.87a45.21,45.21,0,0,0-2.39,5.08l.41.62c2.84-.52,5.67-1.1,8.53-1.56,5.25-.86,10.5-1.89,15.79-2.37,4.22-.39,6.59,3.39,5.2,7.52a59.22,59.22,0,0,0-7.73-1.11,143.52,143.52,0,0,0-14.52.42c-7.34.58-14.64,1.6-22,2.15-8.63.65-17.28,1.23-25.93,1.4-5.32.1-10.65-.68-16-1a4.94,4.94,0,0,1-4.25-2.78C237.65,53.25,236.66,51,237.53,48.17Z"/><path class="cls-1" d="M506.11,122.7a47,47,0,0,1,.84-5c.11-.41,1.11-.87,1.67-.83,4.27.35,8.54.76,12.8,1.26,2.79.34,5.56.84,8.34,1.3,3.69.62,5.38,2.53,5.65,6.31a2.3,2.3,0,0,1,0,.74c-.27,1-.58,2-.87,3a25.18,25.18,0,0,1-2.36-1.48c-2.42-1.88-5.26-2.5-8.2-2.89Z"/><path class="cls-1" d="M75.18,143.71C37.75,143.94,6.92,113,7,75.4,7,39.09,36.17,7.17,75.37,7.24a68.14,68.14,0,0,1,68.14,68.13c0,.47,0,.95,0,1.42C142.83,113.76,112.35,144,75.18,143.71ZM78.61,35.33c-6-5.2-12.46-7.34-20-5.7s-13.61,6-18.4,11.91C28.29,56.19,24,73,26.83,91.6a35.7,35.7,0,0,0,9,19.33c4.66,5,10.45,7.8,17.36,7.55,7.28-.26,13.31-3.61,18.56-8.45,8.35-7.72,13.41-17.39,16-28.33.75-3.23,2-4.71,5.26-4.72a59,59,0,0,0,6.63-.74c-.08.67-.12,1.08-.17,1.49-.43,3.6-1,7.18-1.26,10.78-.22,3.11,1.09,4.55,4.17,5.25,1.37.32,2.08-.14,2.29-1.57.72-4.91,1.49-9.82,2.24-14.73.18-1.2.45-2.23,2-2.44a1.79,1.79,0,0,0,1.2-1.18,1.7,1.7,0,0,0-.74-1.45,1.52,1.52,0,0,1-.8-2.12c.24-.76.34-1.57.6-2.32,1.73-5,3.38-10.19,5.31-15.2a2.54,2.54,0,0,0-1.27-3.22c-5.32-2.5-5.65-2.16-7.51,3s-3.1,10.71-4.48,16.12c-.36,1.42-.88,1.84-2.57,1.83a29.86,29.86,0,0,0-6.85.77c-2,.46-2.34.09-2.32-1.54a73.76,73.76,0,0,0-3.28-23c-.17-.54-.46-1-.83-1.87-1.4,1.74-2.58,3.14-3.66,4.62a2.12,2.12,0,0,0-.21,1.5c.7,3.85,1.65,7.67,2.14,11.55A71.24,71.24,0,0,1,83.65,71l-2.94-.84c-1.51-.43-2.37.19-2,1.71.5,2.24.82,4.72,3.73,5.4a14.75,14.75,0,0,1-.18,1.89,59,59,0,0,1-6.93,17.19c-3.2,5.2-7.09,9.75-12.38,12.94-9.4,5.68-19,3.52-25-5.64a36.22,36.22,0,0,1-5.56-17.75,58.59,58.59,0,0,1,5.39-29.56c3.54-7.46,8.26-14,15.54-18.29,6.79-4,14.52-4,20.6,1.19a3.09,3.09,0,0,0,.7.36ZM74,112.41c6.13,5.35,13,7.42,20.86,5.28,9-2.46,15.5-8.39,20.56-15.91A62.48,62.48,0,0,0,126,60a42,42,0,0,0-6.59-19.7c-6.24-9.39-16.27-13.25-26.36-10C84.58,33,78.48,38.73,73.54,45.87a60,60,0,0,0-9.56,23c-.11.58-.55,1.5-.94,1.55-2.95.42-5.92.67-8.88,1l-.54-.52c1.93-5.66,3.68-11.39,5.85-17,1.32-3.39,1.51-3.53-2-4.93-.4-.16-.8-.32-1.21-.45-2.37-.76-3.11-.6-4,1.73-1.4,3.59-2.6,7.27-3.69,11-.93,3.16-1.58,6.4-2.39,9.8-1-.27-1.8-.47-2.6-.72-1.72-.54-2.33-.13-2.07,1.69.34,2.33.91,4.62,3.46,5.42-.42,3.87-.93,7.58-1.2,11.31-.22,2.92,1.58,4.83,4.52,5.18,1.2.15,1.81-.38,2-1.61.46-3.59.93-7.17,1.47-10.75s.61-3.76,4.31-4.38c2.21-.37,4.44-.62,6.89-1,0,8.9.87,17.41,4.14,25.81.85-.87,1.74-1.7,2.68-2.49,1.35-1,1.6-2.06,1-3.78a43.12,43.12,0,0,1-1.75-18.91,2.14,2.14,0,0,1,1-1.37c1.52-.74,1.69-1.82.61-3.17A3.25,3.25,0,0,1,70,70a56.52,56.52,0,0,1,5.88-16.41c3.52-6.32,7.89-11.9,14.32-15.55,9.31-5.28,18.88-2.81,24.58,6.27a37.8,37.8,0,0,1,5.41,18.17,58.13,58.13,0,0,1-4.4,26.12c-3.52,8.52-8.42,16-16.52,20.91-5.6,3.37-11.5,4.11-17.58,1.16-1.3-.64-2.76-1.91-3.9-1.67s-2.3,1.9-3.42,3a5,5,0,0,0-.33.47Z"/></g></g></svg>