<svg xmlns="http://www.w3.org/2000/svg" width="150.79" height="150.69" viewBox="0 0 150.79 150.69"><defs><style>.cls-1{fill:#f38230;}</style></defs><title>Asset 1</title><g id="Layer_2" data-name="Layer 2"><g id="Layer_1-2" data-name="Layer 1"><path class="cls-1" d="M75.46,0a75.11,75.11,0,0,1,75.33,74.89c0,.5,0,1,0,1.48-.52,42-35,74.5-75.78,74.32A75.43,75.43,0,0,1,0,75C.19,32.59,34.93-.36,75.46,0Zm-.19,5.41C37.45,5.26,5.48,35.82,5.14,74.64a70.11,70.11,0,1,0,71-69.22Z"/><path class="cls-1" d="M75.18,143.71C37.75,143.94,6.92,113,7,75.4,7,39.09,36.17,7.17,75.37,7.24a68.14,68.14,0,0,1,68.14,68.13c0,.47,0,.95,0,1.42C142.83,113.76,112.35,144,75.18,143.71ZM78.61,35.33c-6-5.2-12.46-7.34-20-5.7s-13.61,6-18.4,11.91C28.29,56.19,24,73,26.83,91.6a35.7,35.7,0,0,0,9,19.33c4.66,5,10.45,7.8,17.36,7.55,7.28-.26,13.31-3.61,18.56-8.45,8.35-7.72,13.41-17.39,16-28.33.75-3.23,2-4.71,5.26-4.72a59,59,0,0,0,6.63-.74c-.08.67-.12,1.08-.17,1.49-.43,3.6-1,7.18-1.26,10.78-.22,3.11,1.09,4.55,4.17,5.25,1.37.32,2.08-.14,2.29-1.57.72-4.91,1.49-9.82,2.24-14.73.18-1.2.45-2.23,2-2.44a1.79,1.79,0,0,0,1.2-1.18,1.7,1.7,0,0,0-.74-1.45,1.52,1.52,0,0,1-.8-2.12c.24-.76.34-1.57.6-2.32,1.73-5,3.38-10.19,5.31-15.2a2.54,2.54,0,0,0-1.27-3.22c-5.32-2.5-5.65-2.16-7.51,3s-3.1,10.71-4.48,16.12c-.36,1.42-.88,1.84-2.57,1.83a29.86,29.86,0,0,0-6.85.77c-2,.46-2.34.09-2.32-1.54a73.76,73.76,0,0,0-3.28-23c-.17-.54-.46-1-.83-1.87-1.4,1.74-2.58,3.14-3.66,4.62a2.12,2.12,0,0,0-.21,1.5c.7,3.85,1.65,7.67,2.14,11.55A71.24,71.24,0,0,1,83.65,71l-2.94-.84c-1.51-.43-2.37.19-2,1.71.5,2.24.82,4.72,3.73,5.4a14.75,14.75,0,0,1-.18,1.89,59,59,0,0,1-6.93,17.19c-3.2,5.2-7.09,9.75-12.38,12.94-9.4,5.68-19,3.52-25-5.64a36.22,36.22,0,0,1-5.56-17.75,58.59,58.59,0,0,1,5.39-29.56c3.54-7.46,8.26-14,15.54-18.29,6.79-4,14.52-4,20.6,1.19a3.09,3.09,0,0,0,.7.36ZM74,112.41c6.13,5.35,13,7.42,20.86,5.28,9-2.46,15.5-8.39,20.56-15.91A62.48,62.48,0,0,0,126,60a42,42,0,0,0-6.59-19.7c-6.24-9.39-16.27-13.25-26.36-10C84.58,33,78.48,38.73,73.54,45.87a60,60,0,0,0-9.56,23c-.11.58-.55,1.5-.94,1.55-2.95.42-5.92.67-8.88,1l-.54-.52c1.93-5.66,3.68-11.39,5.85-17,1.32-3.39,1.51-3.53-2-4.93-.4-.16-.8-.32-1.21-.45-2.37-.76-3.11-.6-4,1.73-1.4,3.59-2.6,7.27-3.69,11-.93,3.16-1.58,6.4-2.39,9.8-1-.27-1.8-.47-2.6-.72-1.72-.54-2.33-.13-2.07,1.69.34,2.33.91,4.62,3.46,5.42-.42,3.87-.93,7.58-1.2,11.31-.22,2.92,1.58,4.83,4.52,5.18,1.2.15,1.81-.38,2-1.61.46-3.59.93-7.17,1.47-10.75s.61-3.76,4.31-4.38c2.21-.37,4.44-.62,6.89-1,0,8.9.87,17.41,4.14,25.81.85-.87,1.74-1.7,2.68-2.49,1.35-1,1.6-2.06,1-3.78a43.12,43.12,0,0,1-1.75-18.91,2.14,2.14,0,0,1,1-1.37c1.52-.74,1.69-1.82.61-3.17A3.25,3.25,0,0,1,70,70a56.52,56.52,0,0,1,5.88-16.41c3.52-6.32,7.89-11.9,14.32-15.55,9.31-5.28,18.88-2.81,24.58,6.27a37.8,37.8,0,0,1,5.41,18.17,58.13,58.13,0,0,1-4.4,26.12c-3.52,8.52-8.42,16-16.52,20.91-5.6,3.37-11.5,4.11-17.58,1.16-1.3-.64-2.76-1.91-3.9-1.67s-2.3,1.9-3.42,3a5,5,0,0,0-.33.47Z"/></g></g></svg>