<svg xmlns="http://www.w3.org/2000/svg" width="491.04" height="115.11" viewBox="0 0 491.04 115.11"><defs><style>.cls-1{fill:#f38230;}</style></defs><title>Asset 2</title><g id="Layer_2" data-name="Layer 2"><g id="Layer_1-2" data-name="Layer 1"><path class="cls-1" d="M410.62,57.69c.31-.56.62-1.11.91-1.68a84.67,84.67,0,0,1,10.11-16.26c3.26-3.86,6.34-4.15,10.3-1,1.49,1.18,1.54,2,.08,3.26-3.73,3.2-5.28,7.46-5.82,12.16C426,56.3,427,58,428.49,58a3.8,3.8,0,0,0,3.77-3.61c.4-7,6.64-12.85,13.42-12.59a9,9,0,0,1,2.67.58c4.55,1.63,9,10.64,4.36,16.35-1.78,2.2-7.27,1.66-8.39-.93a1.41,1.41,0,0,1,.54-1.2,5.84,5.84,0,0,0,2.65-7.11c-.22-.63-.83-1.57-1.24-1.56a2.71,2.71,0,0,0-1.9,1.14,12.87,12.87,0,0,0-1.95,8.46c.36,3,1.07,6,1.65,9.12,3.57-1.15,6.75-2.24,10-3.18A75.3,75.3,0,0,1,477,60.32a67.1,67.1,0,0,1,10,1.11,5,5,0,0,1,4,5.85,4.94,4.94,0,0,1-.89,2,2.09,2.09,0,0,1-1.74.71c-15.1-3.67-29.88-2.14-44.41,2.78a103.4,103.4,0,0,0-12.69,5.42,25.8,25.8,0,0,0-5.86,4.37A4.59,4.59,0,0,0,424,87.82c.83,1.94,2.82,2.48,4.75,2.66a7.77,7.77,0,0,0,8.54-6.92,7.56,7.56,0,0,0-.15-2.51c-.13-.66-.25-1.32-.44-2.37l8.52-3.3a11.35,11.35,0,0,1-3.48,13A19.2,19.2,0,0,1,426,92.46c-5.17-.86-7.64-6.07-4.88-10.53a20.2,20.2,0,0,1,4.69-4.85,70.45,70.45,0,0,1,7.51-5,1.86,1.86,0,0,0,1.11-2.33c-.72-3.16-1.43-6.33-2.17-9.61a5.29,5.29,0,0,0-.94.27,8.62,8.62,0,0,1-11-2.88,7.15,7.15,0,0,1-.81-5.86c.48-2.2,1.3-4.33,2-6.5a2.58,2.58,0,0,0,.11-1.71c-.62.86-1.32,1.68-1.86,2.59a95.3,95.3,0,0,0-9.06,21.72c-1.75,5.8-3,11.76-4.55,17.62a1.86,1.86,0,0,1-1.43,1.11c-2.37-.44-4.71-1.46-5.54-3.78-.57-1.59-.16-3.59,0-5.38.46-4.14,1.06-8.25,1.22-12.56-.3.58-.61,1.16-.88,1.75-2.82,6.1-5.72,12.15-10.16,17.28-1.91,2.2-4,4.33-6.94,5-6.5,1.4-15.15-1.53-16.25-11.52a93.46,93.46,0,0,1-.06-9.76,8.88,8.88,0,0,0-.9.5q-3.93,2.75-7.82,5.53A10,10,0,0,0,356,74.93,67.48,67.48,0,0,1,351,80.17c-4.39,3.82-7.49,5.31-14,2-.35,1.79-.72,3.49-1,5.2a174.26,174.26,0,0,0-2.32,25.49c0,2.13-.67,2.63-2.75,2a18.41,18.41,0,0,1-3-1.28,4.49,4.49,0,0,1-2.6-4.65c.27-4.42.31-8.85.55-13.27.08-1.39-.46-1.86-1.74-1.92-12.41-.54-24.81-1.37-37.23-.14-6.17.62-12.37,1-18.54,1.57-2.08.2-4.14.7-6.21,1.07v.59c4.17,1.2,8.45,2.1,12.46,3.68s7.77,3.85,11.82,5.91c.06-.43.15-.93.19-1.43.15-2.4.23-4.79.46-7.18,0-.46.58-1.22.94-1.25,2.67-.25,5.36-.35,8.22-.5-.38,3.54-.77,6.81-1.07,10.09-.16,1.78-.24,3.56-.26,5.34,0,1.35-.56,1.86-1.91,1.79-2.58-.14-4.66-1.39-6.72-2.77-3.26-2.19-6.47-4.49-9.9-6.41-5.9-3.31-12.41-4.92-19.05-6a6,6,0,0,1-4.71-6.84,1.58,1.58,0,0,1,1.71-1.42,1.61,1.61,0,0,1,.49.13c7.32,2,14.64.9,22,.06,3.36-.39,6.71-.81,10-1.35a2.25,2.25,0,0,0,1.51-1.4c1.43-7.78,2.75-15.58,4.1-23.38a5,5,0,0,0-.39-.77,28.51,28.51,0,0,1-2.87,3.25,77.27,77.27,0,0,0-11.54,11.26,14,14,0,0,1-8.78,5,11.1,11.1,0,0,1-11.13-4.18,14.32,14.32,0,0,1-3.17-11c.82-7.71,3-14.95,8-21.08a30.6,30.6,0,0,1,5.16-4.69c1.91-1.5,4.12-1.31,6.33-.64,1.8.54,3.6,1.11,5.43,1.52,5.22,1.17,9.09,5.18,8.77,9.49A72.42,72.42,0,0,1,287,60.6c-.33,1.72-1,3.39-1.44,5.09.19,0,.36.12.4.07C290,62,293.61,58,295.3,52.55c.89-2.87,1.93-5.69,3-8.51a2.48,2.48,0,0,1,3-1.86,2.23,2.23,0,0,1,.7.28c2.09.88,4.2,1.7,6.25,2.66,1.32.61,1.51,1.45.54,2.77a22.9,22.9,0,0,0-3.7,9.48c.48-.76.93-1.56,1.46-2.28,2.77-3.82,5.31-7.85,8.44-11.36,2.62-2.93,6-2.66,9-.1,4.52,3.76,4.92,8.59,3.3,13.73-1.22,3.85-2.89,7.55-4.36,11.32-.22.55-.46,1.08-.92,2.15a11.93,11.93,0,0,0,1.6-1c1.39-1.31,2.76-2.63,4.11-4a17,17,0,0,0,4.6-8.8,145.24,145.24,0,0,1,4.25-14.65c1.14-3.39,1.89-3.65,5.19-2.48a46.4,46.4,0,0,1,5.51,2.52c1.1.55,1.18,1.35.41,2.41a23.21,23.21,0,0,0-3.83,9.66c.31-.48.62-1,.94-1.44,2.21-3.32,4.3-6.74,6.7-9.94,1.94-2.58,4.29-5.11,8-4.09a9.52,9.52,0,0,1,7,7.61,18.11,18.11,0,0,1-.57,8.11c-1.08,3.81-2.83,7.44-4.29,11.15a5.52,5.52,0,0,0-.5,1.74c3.28-2.41,6.34-5,8.15-8.72,2-4.17,4.28-8.11,8-11.11a11.61,11.61,0,0,1,18.38,5.82c.89,3.26-.15,6.36-1.94,9.12a23.15,23.15,0,0,1-16.79,10.54c-1.47.21-1.81.84-1.6,2a25.06,25.06,0,0,0,1.22,5.34c1.61,3.75,5.63,4.9,8.85,2.44a23.72,23.72,0,0,0,4.87-5.23c4.45-6.33,7.38-13.46,10.15-20.63,2.35-6.06,4.41-12.24,6.64-18.35.89-2.44,1.47-2.66,3.87-1.84a10.41,10.41,0,0,1,1,.4c4,1.71,4,2,2.63,6-1.46,4.23-2.73,8.53-4.06,12.81a10.17,10.17,0,0,0-.24,1.36ZM278.71,51.6a27.17,27.17,0,0,0-.53-3.71c-.72-2.59-2.69-3.38-5-2a10.92,10.92,0,0,0-3,2.71,34.56,34.56,0,0,0-6.67,23.93c.24,3,.62,3.37,3.46,2.72,1.94-.44,4.29-.2,5.52-2.37A49.06,49.06,0,0,0,278.71,51.6Zm78.17-3.43a2.55,2.55,0,0,0,0-1.1c-.37-.85-.67-2.11-1.32-2.34s-1.67.57-2.46,1a4.47,4.47,0,0,0-1,1.12,63.25,63.25,0,0,0-9.32,15.63c-1.68,4.08-3.1,8.28-4.47,12.47-.7,2.13-.17,2.8,2,3.47a4.84,4.84,0,0,0,5.14-1.67,30.13,30.13,0,0,0,3.71-5A53.91,53.91,0,0,0,356.88,48.17Zm-58,31.59c4.3,1.64,7.76.51,10-2.78a54.17,54.17,0,0,0,8.32-19.9,41.46,41.46,0,0,0,.77-7.29,2.66,2.66,0,0,0-1.25-2.16c-.61-.22-1.61.46-2.35.9a5.13,5.13,0,0,0-1.08,1.24,70.36,70.36,0,0,0-11.07,19.87c-1.13,3.31-2.13,6.7-3.31,10.12Zm30.94-12c-.78.71-1.2,1.13-1.66,1.49-2.82,2.18-5.65,4.32-8.45,6.52-1.08.84-2.12,1.74-3.12,2.69-2,1.92-3.84,4-5.89,5.81a9.33,9.33,0,0,1-8.4,2.28,32.82,32.82,0,0,1-4.13-1.48c-.14,1.05-.27,2-.39,3h28.78c1.1-6.74,2.15-13.29,3.29-20.32Zm45.67,3a5.84,5.84,0,0,0,4.94-1.48c4.57-3.42,6.92-8.16,7.82-13.7a9.87,9.87,0,0,0,.13-2.92c-.28-2.11-1.87-2.83-3.55-1.57A14.25,14.25,0,0,0,382,53.94c-3.65,5-5.5,10.61-6.46,16.84Z"/><path class="cls-1" d="M129.63,31.51c-1.24,4.64-2.57,9-3.55,13.4-2.14,9.64-4.14,19.31-6.1,29a31.86,31.86,0,0,0-.42,5.69,2,2,0,0,0,.86,1.45c.21.15,1-.29,1.33-.66,2.32-3,4.61-6.06,6.83-9.16a2.38,2.38,0,0,0,.14-1.72c-2.35-12.09,1.56-22.26,9.63-31.09a10.67,10.67,0,0,1,6.85-3.69c5.1-.46,8.47,2.44,11.29,6.12,2.54,3.33,1.75,7,0,10.27-3.68,6.88-9.68,10.64-17.29,11.79-1.49.23-1.95.73-1.81,2.06a28.74,28.74,0,0,0,.36,2.92c1.09,5,4.23,6.94,9.25,5.76a25.8,25.8,0,0,0,13.44-8.31c1.13-1.26,1.07-3.66,1.4-5.57,2.77-15.59,5.71-31.14,10.73-46.21a47,47,0,0,1,2.36-5.39,2,2,0,0,1,2.5-1.33,2.17,2.17,0,0,1,.35.15c.59.19,1.18.36,1.77.49,5.95,2,6.65,3.12,7.26,9.41,1.53,15.9-3.37,29.53-14.13,41.21a4.93,4.93,0,0,0-1,2.29q-1.53,8.51-2.94,17a17.11,17.11,0,0,0,0,2.48c.6-.34,1-.53,1.38-.79a61.92,61.92,0,0,0,19-23.36c.51-1,1-2.14,2.43-1.54s1.21,1.83.66,2.94a79.29,79.29,0,0,1-14.35,20.47,57.89,57.89,0,0,1-9,7.2,7.15,7.15,0,0,1-4.56.84c-3-.39-4.42-2.56-4.6-6.39-.07-1.59.13-3.19.2-4.79,0-1.07.11-2.15.18-3.64-1.54,1.18-2.71,2.13-3.94,3-3.65,2.61-7.6,4.61-12.13,5-5,.39-9.69-.64-13.23-5-.77,1.09-1.32,2-2,2.85a92.31,92.31,0,0,1-7.18,8.13,6.09,6.09,0,0,1-9.45-1.38,5.91,5.91,0,0,1-.76-2.23c-.48-3.39-.06-6.93.09-10.39.1-2.13.5-4.24.77-6.36l-.74-.65a6.6,6.6,0,0,1-1,1.89c-2.8,2.57-5.69,5-8.5,7.6a2.79,2.79,0,0,0-1,1.7,12,12,0,0,1-4.92,10,19.83,19.83,0,0,1-14.32,4.26C78.65,89,76,87,75.47,84.42a6.76,6.76,0,0,1,3.61-7.59,37.57,37.57,0,0,1,7.45-1.77c1.37-.27,2.8-.3,4.77-.49-1.12-4.46-2.2-8.72-3.39-13.46-.7.92-1.11,1.42-1.49,2A42.08,42.08,0,0,1,75.89,73.32a13.93,13.93,0,0,0-2,2.06c-1.94,2.12-3.66,4.51-5.83,6.36-4,3.37-8.67,4.73-13.54,2.41S47,77.37,47,71.77A38.06,38.06,0,0,1,55,48.65a27.21,27.21,0,0,1,4.84-4.51c2.25-1.76,4.75-1.64,7.32-.58A18.55,18.55,0,0,0,71,44.68a13.23,13.23,0,0,1,7,3.38A7.67,7.67,0,0,1,80.52,54a38.07,38.07,0,0,1-2.13,12.28c-.19.56-.35,1.13-.67,2.18a11.38,11.38,0,0,0,1.46-1.1c1.84-2.14,3.72-4.26,5.47-6.48a11.65,11.65,0,0,0,2.67-8c-.18-6,5.29-11.58,11.16-11.89,4.09-.21,6.88,1.76,8.63,6.11,1.17,2.93,1.48,5.8-.27,8.66-1.51,2.47-2.44,2.91-5.15,1.93a33,33,0,0,1-3.49-1.82c3.35-1.86,4.48-4.34,3.75-7.49-.2-.88-1-2.17-1.68-2.24s-1.87.85-2.34,1.63a14,14,0,0,0-1.71,7.62A38.55,38.55,0,0,0,100,71.24a42.74,42.74,0,0,0,4.85-3.83c2.29-2.4,4.36-5,6.46-7.56,3.08-3.75,3.42-8.45,4.39-12.93.92-4.25,1.91-8.49,2.79-12.76.24-1.12.65-1.63,1.9-1.72C123.35,32.27,126.33,31.87,129.63,31.51ZM71,54.2l0-1.44c-.15-2-.2-4.19-2.49-5s-3.86.93-5.34,2.41l-.27.33a64.07,64.07,0,0,0-4,7C56.33,63.24,55,69.26,56,75.59c.36,2.48,1.26,3,3.78,2.6a8.05,8.05,0,0,0,6-4.62A48.16,48.16,0,0,0,71,54.2Zm66.57,6.26.53.56a22,22,0,0,0,4.49-2c4.7-3.47,7.1-8.33,7.84-14,.21-1.62.77-3.58-1.12-4.43-2.06-.93-3.26.92-4.4,2.21A29.22,29.22,0,0,0,139.1,54C138.46,56.06,138.09,58.27,137.54,60.46ZM173.75,50.3c6.21-5.24,12-27.11,8.87-33-3.9,10.71-6.32,21.62-8.87,33ZM91.09,77.4c-3.43.4-6.43.57-9.34,1.15a3.4,3.4,0,0,0,1.47,6.64,4.06,4.06,0,0,0,.59-.19C87.31,83.83,89.54,81.37,91.09,77.4Z"/><path class="cls-1" d="M19.33,42.08l10.16-1.17a36.46,36.46,0,0,1,5.31-.53c1.69,0,2.18-.69,2.49-2.15a167.52,167.52,0,0,1,8.2-27.3c1.26-3.19,2.87-6.24,4.38-9.33C50.55.2,51.61-.22,53.22.28,56,1.16,58.82,2,61.1,4.07,56.26,11.94,53.23,20.42,50.34,29c-.73,2.15-1.29,4.36-2,6.51-.93,2.75-1.33,5.35.35,8.06,1,1.6.47,2.33-1.47,2.49a1.86,1.86,0,0,0-2,1.73,1.21,1.21,0,0,0,0,.19C44,57.5,42.71,67,41.52,76.59c-.27,2.19-.28,4.42-.39,6.63-.07,1.47-.67,2.21-2.24,1.7a21.79,21.79,0,0,1-2.44-.81c-3.18-1.46-3.88-2.54-3.65-6,.67-10.1,1.41-20.2,2.13-30.58-.88.09-2.11.18-3.32.35C27.29,48.46,23,49,18.67,49.73a2.2,2.2,0,0,0-1.45,1.44c-.84,6.69-1.69,13.39-2.27,20.12-.61,7.09-.95,14.22-1.36,21.33-.09,1.5-.71,2-2.13,1.52a28.27,28.27,0,0,1-2.94-1,4.85,4.85,0,0,1-3.13-5.08c.82-12.57,1.52-25.14,2.26-37.71a6,6,0,0,0-.14-1,27.06,27.06,0,0,0-2.86.53C3.37,50.3,2.41,50,2,48.75A59.09,59.09,0,0,1,.09,43c-.28-1.13,0-2,1.67-1.7a55.45,55.45,0,0,0,6.44.16c1.32,0,1.2-1,1.39-1.79,1.88-7.56,3.59-15.16,5.66-22.67a108.66,108.66,0,0,1,4-10.48,2.39,2.39,0,0,1,2.91-1.72,1.6,1.6,0,0,1,.33.11,75.17,75.17,0,0,1,6.94,2.89c.45.22.93,1.49.71,1.83-3.48,5.27-5.05,11.31-6.88,17.22-1.38,4.45-2.45,9-3.64,13.5C19.5,40.77,19.47,41.26,19.33,42.08Z"/><path class="cls-1" d="M225.83,42.09,236,40.91a33.76,33.76,0,0,1,5.3-.53c1.72.06,2.09-.77,2.49-2.16,2.55-8.84,5.08-17.68,7.88-26.43A64.21,64.21,0,0,1,256,2.23c1.27-2.47,1.76-2.61,4.42-1.75s5.18,1.59,7.15,3.67c-4.52,7.18-7.34,15-10.11,22.9-1.07,3.06-1.8,6.25-2.86,9.32A7.48,7.48,0,0,0,255,43c1.19,2,.82,2.81-1.64,3.13a2.23,2.23,0,0,0-1.5,1.43c-1.09,6.59-2.2,13.19-3,19.82-.6,4.8-.81,9.66-1.16,14.5-.08,1.09-.62,1.48-1.67,1.48a6.3,6.3,0,0,1-6.65-5.94,6.17,6.17,0,0,1,0-.86c.67-9.61,1.41-19.21,2.14-29.12l-5.91.79c-3.4.47-6.8,1-10.21,1.37-1.08.12-1.56.55-1.67,1.54-.75,6.71-1.64,13.41-2.22,20.13-.6,7.1-.94,14.22-1.35,21.33-.09,1.52-.75,2-2.16,1.5-.86-.3-1.77-.5-2.6-.88-2.31-1.06-3.62-2.62-3.45-5.45.65-11,1.12-22.1,1.69-33.14a38.45,38.45,0,0,1,.55-4c.17-1-.2-1.41-1.21-1.17a.2.2,0,0,0-.17.06c-3.95.65-4,.65-5.29-3.23a17.22,17.22,0,0,1-.87-3.74,1.81,1.81,0,0,1,1.15-1.33,51,51,0,0,1,6.06.19c1.45.13,2-.41,2.32-1.83,1.28-5.81,2.49-11.64,4.11-17.36,1.43-5.07,3.23-10,5.13-15,1.12-2.87,1.92-3.09,4.88-2.07A37.81,37.81,0,0,1,236,7.75c.46.24.92,1.5.69,1.84-3.48,5.2-5,11.17-6.82,17-1.38,4.52-2.48,9.12-3.69,13.68A15.61,15.61,0,0,0,225.83,42.09Z"/><path class="cls-1" d="M69.84,20.38c10.47,6.48,21.91,7.21,33.42,7.16,5.26,0,10.51-.86,15.77-1.33,1-.09,1.53-.64,1.86-1.68A87.61,87.61,0,0,1,124,15.71c1-2.23,1.85-2.5,4.13-1.66a44.94,44.94,0,0,1,5.34,2.41c1.26.65,1.43,1.53.61,2.87a45.21,45.21,0,0,0-2.39,5.08l.41.62c2.84-.52,5.67-1.1,8.53-1.56,5.25-.86,10.5-1.89,15.79-2.37,4.22-.39,6.59,3.39,5.2,7.52a59,59,0,0,0-7.73-1.11,143.52,143.52,0,0,0-14.52.42c-7.34.58-14.64,1.6-22,2.15-8.63.65-17.28,1.23-25.93,1.4-5.32.1-10.65-.68-16-1a4.94,4.94,0,0,1-4.25-2.78C70,25.46,69,23.18,69.84,20.38Z"/><path class="cls-1" d="M338.42,94.91a49.67,49.67,0,0,1,.84-5c.11-.41,1.11-.87,1.67-.83,4.27.35,8.54.76,12.8,1.26,2.79.34,5.56.84,8.34,1.3,3.69.62,5.38,2.53,5.65,6.31a2.3,2.3,0,0,1,0,.74c-.27,1-.58,2-.87,3a27.44,27.44,0,0,1-2.36-1.48c-2.42-1.88-5.26-2.5-8.2-2.89Z"/></g></g></svg>