<?xml version="1.0" encoding="utf-8"?>
<!-- Generator: Adobe Illustrator 23.0.2, SVG Export Plug-In . SVG Version: 6.00 Build 0)  -->
<svg version="1.1" id="Layer_1" xmlns="http://www.w3.org/2000/svg" xmlns:xlink="http://www.w3.org/1999/xlink" x="0px" y="0px"
	 viewBox="0 0 491 115.1" style="enable-background:new 0 0 491 115.1;" xml:space="preserve">
<style type="text/css">
	.st0{fill:#F38230;}
	.st1{fill:#FFFFFF;}
</style>
<title>Asset 2</title>
<g>
	<g id="Layer_1-2">
		<g>
			<path class="st0" d="M327.9,113.3c-0.4,0-0.9-0.1-1.6-0.3c-1-0.3-2.1-0.8-3-1.3c-2-0.9-3.3-3.1-3-5.5c0.2-2.5,0.2-5,0.3-7.5
				c0-1.7,0.1-3.4,0.2-5.1c0-0.5,0-0.6-0.1-0.7c0,0-0.1-0.1-0.6-0.1c-1.9-0.1-3.7-0.2-5.5-0.2c-5.4-0.2-10.9-0.5-16.4-0.5
				c-4.9,0-9.3,0.2-13.4,0.6c-2.9,0.3-5.9,0.5-8.7,0.8c-2.9,0.2-6,0.5-8.9,0.8c-1,0.1-1.9,0.3-2.9,0.4c0.2,0.1,0.5,0.1,0.7,0.2
				c2.8,0.7,5.7,1.5,8.4,2.6c3,1.2,5.8,2.7,8.8,4.3c0.4,0.2,0.9,0.5,1.3,0.7c0.1-2.2,0.2-4.5,0.5-6.7c0-0.9,0.9-1.9,1.5-2.1
				c0.1,0,0.1,0,0.2,0c1.6-0.2,3.2-0.2,4.7-0.3c1,0,2-0.1,3.1-0.2c0,0,0,0,0.1,0c0.3,0,0.5,0.1,0.7,0.3c0.2,0.2,0.3,0.5,0.3,0.8
				l-0.2,1.9c-0.3,2.6-0.6,5.1-0.8,7.7c-0.1,1.1-0.2,2.2-0.2,3.3c0,0.6,0,1.1-0.1,1.7c0,1.6-1,2.7-2.6,2.7c-0.1,0-0.2,0-0.3,0
				c-2.7-0.1-4.9-1.5-6.9-2.8c-0.7-0.5-1.5-1-2.2-1.5c-2.3-1.6-4.7-3.2-7.1-4.5c-5.9-3.3-12.6-4.7-17.7-5.6
				c-3.5-0.7-5.9-4.1-5.3-7.6c0.1-1.3,1.1-2.2,2.4-2.2c0.1,0,0.2,0,0.2,0c0.2,0,0.4,0.1,0.5,0.1c0.1,0,0.1,0,0.2,0
				c2.6,0.7,5.3,1,8.5,1c3.4,0,6.8-0.4,10.2-0.8l1.9-0.2c3.2-0.4,6.3-0.7,9.4-1.2c0.3-0.1,0.6-0.4,0.7-0.6
				c1.2-6.5,2.4-13.3,3.5-20.1c-0.4,0.4-0.7,0.7-1.1,1.1c-4.1,3.2-7.7,6.8-10.8,10.6c-2.3,2.8-5.5,4.6-9,5.1
				c-0.7,0.2-1.5,0.2-2.3,0.2c-3.6,0-7-1.7-9.2-4.6c-2.5-3.2-3.7-7.2-3.2-11.2c0.9-8.5,3.4-15.2,7.8-20.6c1.3-1.6,2.9-3,5.1-4.6
				c1.1-0.8,2.3-1.3,3.8-1.3c0.9,0,2,0.2,3.1,0.6c0.5,0.1,1.1,0.3,1.7,0.5c1.1,0.3,2.3,0.7,3.4,0.9c5.5,1.3,9.5,5.6,9.1,10.1
				c-0.2,2.8-0.7,5.5-1.1,8.2c-0.1,0.7-0.3,1.3-0.5,1.9c3-3.1,5.2-6.2,6.4-10c0.8-2.6,1.7-5.3,2.9-8.1c0.4-1.5,1.8-2.6,3.3-2.6
				c0.2,0,0.5,0,0.7,0.1c0.1,0,0.2,0,0.2,0.1c0.2,0.1,0.5,0.1,0.7,0.3c0.6,0.3,1.2,0.5,1.8,0.8c1.3,0.5,2.7,1.1,4,1.8
				c0.9,0.4,1.4,1,1.6,1.7c0.2,0.8-0.1,1.6-0.7,2.5c-0.5,0.8-1,1.6-1.4,2.5c0.1-0.2,0.2-0.3,0.3-0.5c1.7-2.4,3.5-4.9,5.5-7.3
				c1.4-1.5,3.1-2.4,4.9-2.4c1.7,0,3.5,0.7,5.1,2.2c4.1,3.5,5.3,8.2,3.4,14.1c-0.9,2.8-2,5.6-3.2,8.3c-0.2,0.4-0.3,0.8-0.5,1.2
				c0.8-0.8,1.6-1.5,2.3-2.3c2.1-2.1,3.6-4.9,4.1-7.9c1.2-5,2.5-9.5,4.1-14c0.6-1.9,1.4-3.7,3.4-3.7c0.7,0,1.5,0.2,2.8,0.7
				c1.9,0.7,3.6,1.6,5.3,2.4c0.7,0.3,1.2,0.8,1.4,1.5c0.2,0.7,0,1.5-0.6,2.3c-0.3,0.5-0.6,1-0.9,1.5c0.9-1.4,1.9-2.8,2.9-4.2
				c1.6-2.2,3.7-4.5,6.9-4.5c0.6,0,1.2,0.1,1.8,0.2c3.8,1,6.7,4.1,7.4,8c0.4,2.7,0.2,5.6-0.6,8.2c-0.8,2.7-1.9,5.4-3,7.9
				c-0.2,0.4-0.3,0.7-0.5,1.1c1.9-1.6,3.6-3.5,4.7-5.8c1.7-3.6,4-7.8,7.9-10.9c2.1-1.7,4.8-2.6,7.5-2.6c3.7,0,7.1,1.6,9.4,4.5
				c1,1.3,1.7,2.6,2.2,4.1c0.9,3.1,0.2,6.3-1.9,9.5c-3.6,5.8-9.7,9.6-16.7,10.4c-0.5,0.1-0.7,0.2-0.7,0.2l0,0c0,0,0,0.1,0,0.5
				c0.2,1.7,0.6,3.4,1.1,4.9c0.8,1.8,2.2,2.9,4,2.9c1,0,2-0.4,2.9-1.1c1.5-1.2,3-2.8,4.5-4.7c4.2-5.9,6.9-12.5,9.5-19.3
				c1.5-3.9,2.9-7.8,4.2-11.6c0.7-1.9,1.4-3.9,2.1-5.8c0.4-1.1,1.1-2.8,2.9-2.8c0.5,0,1.2,0.2,2.1,0.5l0.1,0
				c0.3,0.1,0.6,0.2,0.9,0.4c4.3,1.8,4.4,2.8,3,6.9c-0.7,1.8-1.3,3.7-1.9,5.6c2-3.5,4.3-6.9,6.9-10.2c2-2.3,3.8-3.4,5.9-3.4
				c1.7,0,3.4,0.8,5.3,2.3c0.7,0.5,1.4,1.3,1.5,2.3c0,1-0.7,1.8-1.3,2.4c-3,2.6-4.7,6.2-5.2,11c-0.1,0.9,0.1,1.7,0.5,2.2
				c0.2,0.2,0.4,0.3,0.7,0.3c1.4,0,2.5-1.1,2.6-2.5c0.4-7,6.5-12.9,13.4-12.9c0.1,0,0.2,0,0.4,0c1,0.1,1.9,0.3,2.9,0.6
				c2.7,1,5.2,4,6.2,7.7c1,3.6,0.5,6.9-1.6,9.5c-0.9,1.1-2.5,1.7-4.3,1.7c-2,0-4.2-0.8-5.2-2.4c0.2,1.2,0.4,2.4,0.7,3.7
				c0.2,0.8,0.3,1.7,0.5,2.6c3-1,5.8-1.9,8.4-2.7c6.9-2.1,14-3.1,21.2-3.1c0.3,0,0.6,0,0.9,0c3.1,0.1,6.2,0.4,9.7,1.1
				c1.5,0.3,2.8,1.1,3.7,2.4c0.9,1.3,1.2,2.8,0.9,4.3c-0.1,0.8-0.5,1.7-1.1,2.4c-0.5,0.6-1.3,1-2.2,1c-0.1,0-0.3,0-0.4,0
				c-5.2-1.3-10.6-1.9-15.9-1.9c-8.3,0-16.8,1.5-25.8,4.5c-4.2,1.5-8.2,3.2-11.9,5.1c-2,1.1-3.7,2.4-5.4,4c0,0,0,0-0.1,0.1
				c-1.2,0.9-1.6,2.5-1,3.9c0.5,1.1,1.6,1.7,3.7,1.9c0.2,0,0.4,0,0.6,0c3.3,0,6.1-2.4,6.4-5.7c0.1-0.7,0-1.4-0.1-2.2
				c0-0.2-0.1-0.4-0.1-0.7c-0.1-0.4-0.2-0.9-0.3-1.7c0-0.4,0.2-0.9,0.6-1l8.1-3.1c0.1,0,0.2-0.1,0.4-0.1c0.4,0,0.8,0.2,0.9,0.6
				c1.9,4.8,0.4,10.3-3.6,13.5c-3.5,2.8-7.8,4.4-12.3,4.4c-1.1,0-2.3-0.1-3.4-0.3c-2.7-0.5-4.9-2.1-5.9-4.4c-1-2.3-0.8-4.9,0.6-7.1
				c1.3-1.9,2.9-3.5,4.7-4.9c2.5-1.9,4.9-3.5,7.2-4.8c0,0,0.1,0,0.1,0c0.4-0.2,0.6-0.6,0.5-1c0,0,0-0.1,0-0.1
				c-0.7-3.1-1.2-5.6-1.8-8c-1.2,0.5-2.5,0.8-3.8,0.8c-3.1,0-5.9-1.5-7.6-4.1c-1.2-1.9-1.5-4.3-0.9-6.5c0.1-0.6,0.3-1.1,0.4-1.7
				c-2.8,5.4-5.2,11.3-7,17.5c-1.1,3.6-2,7.3-2.8,10.9c-0.5,2-0.9,3.9-1.4,5.9c0,0.1,0,0.1-0.1,0.2c-0.4,0.9-1.2,1.4-2.1,1.6
				c-0.1,0-0.1,0-0.2,0s-0.1,0-0.2,0c-3.1-0.5-5.2-2-6-4.3c-0.6-1.5-0.3-3.2-0.1-4.8c0-0.3,0.3-2.5,0.3-2.5c0.2-1.7,0.4-3.3,0.6-5
				c-2.4,5.1-4.9,9.7-8.5,13.7c-1.8,2-3.9,4.3-7.1,5.1c-1.1,0.2-2.1,0.3-3.2,0.3c-5.6,0-12.4-3.2-13.5-12.1
				c-0.1-2.4-0.2-4.8-0.1-7.6c-1,0.7-2,1.4-3,2.1c-1.2,0.9-2.5,1.8-3.7,2.6c-0.4,0.3-0.8,0.7-1.1,1.1c-1.6,1.8-3.1,3.5-4.9,5.1
				c-2.8,2.4-5.1,3.9-8.1,3.9c-1.6,0-3.2-0.4-5.2-1.3c-0.3,1.3-0.5,2.5-0.7,3.7c-1.4,8.1-2.1,16.2-2.2,24.1
				C330.3,112.3,329.5,113.3,327.9,113.3z M321.7,85.6c0.9-5.3,1.7-10.4,2.6-15.8c-2,1.6-4,3.1-6.1,4.7l-1.6,1.2
				c-0.9,0.7-1.8,1.5-2.8,2.5c-0.8,0.7-1.5,1.5-2.2,2.2c-1.1,1.1-2.2,2.3-3.5,3.3c-0.9,0.8-1.8,1.4-2.9,1.9H321.7z M297.4,85.6
				c-0.4-0.1-0.8-0.3-1.1-0.4c0,0.1-0.1,0.4-0.1,0.4H297.4z M297.5,78.1c0.8,0.2,1.5,0.3,2.2,0.3l0,0c2.1,0,3.9-1,5.2-2.9
				c3.8-5.6,6.4-11.8,7.7-18.6c0.4-1.9,0.6-4,0.7-6.8c0-0.4-0.2-0.8-0.6-1.1c-0.2,0.1-0.7,0.3-0.9,0.5c-0.1,0.1-0.3,0.2-0.4,0.2
				c-0.3,0.3-0.6,0.6-0.8,0.9c-4.5,5.8-8,12.1-10.4,18.7l-0.4,1.4C299.1,73.1,298.4,75.6,297.5,78.1z M348.3,47.2
				c-0.2,0.2-0.5,0.5-0.7,0.8c-3.7,4.5-6.6,9.4-8.7,14.6c-1.6,3.9-2.9,7.9-4.2,11.8c-0.3,0.9-0.3,1.2-0.2,1.3
				c0.1,0.2,0.6,0.5,1.4,0.7c0.3,0.1,0.6,0.1,0.9,0.1c1.1,0,2.1-0.5,2.8-1.4c0,0,0-0.1,0.1-0.1c1.1-1.2,2.3-2.7,3.4-4.6
				c4.1-6.7,6.6-14.3,7.3-22c0-0.1,0-0.1,0-0.2c0-0.2,0.1-0.3,0-0.5c-0.1-0.2-0.2-0.5-0.3-0.7c-0.1-0.2-0.2-0.6-0.3-0.8
				c-0.3,0.1-0.7,0.3-0.9,0.5C348.7,47,348.5,47.1,348.3,47.2z M263.9,73.6c0,0,0.1,0,0.3,0c0.4,0,1.1-0.1,1.5-0.3
				c0.4-0.1,0.8-0.1,1.3-0.2c1.7-0.2,2.7-0.4,3.3-1.6c3.4-5.9,5.4-12.7,5.8-19.7c-0.1-1.1-0.3-2.3-0.5-3.4c-0.2-0.7-0.7-1.7-1.7-1.7
				c-0.4,0-1,0.2-1.5,0.5c-1,0.6-1.9,1.4-2.6,2.3c-4.7,6.4-6.9,14.2-6.2,22C263.7,73.1,263.8,73.5,263.9,73.6L263.9,73.6z
				 M379.4,51.9c-0.2,0-0.6,0.1-0.9,0.4c-0.9,0.6-1.7,1.5-2.5,2.5c-2.9,3.9-4.8,8.6-5.8,14.5c1.1,0,2-0.5,2.8-1.2
				c0,0,0.1-0.1,0.1-0.1c3.8-2.8,6.1-6.9,7-12.4c0.2-0.8,0.2-1.5,0.1-2.5C380.2,52.8,380.1,51.9,379.4,51.9z M436.2,49.5
				c-0.3,0.1-0.6,0.3-0.8,0.5c-1.3,2.1-2,4.6-1.8,7.2c0.1-0.5,0.3-0.9,0.7-1.2c0.1-0.1,0.1-0.1,0.2-0.2c2-1.1,2.8-3.4,2-5.5
				C436.5,50.1,436.4,49.7,436.2,49.5z"/>
			<path class="st1" d="M418,37.5c1.5,0,3,0.7,4.7,2.1c1.4,1.1,1.4,1.9,0.1,3.1c-3.5,3-5,7.1-5.5,11.6c-0.2,2,0.8,3.6,2.2,3.6
				c1.9,0,3.5-1.5,3.6-3.4c0.4-6.5,6.1-12,12.4-12c0.1,0,0.2,0,0.3,0c0.9,0.1,1.7,0.3,2.6,0.6c4.3,1.5,8.6,10.1,4.2,15.6
				c-0.7,0.9-2.1,1.3-3.5,1.3c-1.9,0-3.9-0.8-4.5-2.2c0-0.5,0.2-0.9,0.5-1.1c2.4-1.3,3.4-4.2,2.5-6.8c-0.2-0.6-0.8-1.5-1.1-1.5
				c-0.8,0.1-1.4,0.5-1.8,1c-1.5,2.4-2.2,5.2-1.9,8.1c0.4,2.9,1,5.7,1.5,8.7c3.4-1.1,6.5-2.1,9.5-3c6.7-2,13.8-3,20.9-3
				c0.3,0,0.6,0,0.9,0c3.2,0.1,6.4,0.5,9.5,1c2.6,0.5,4.3,2.9,3.8,5.5c-0.1,0.7-0.4,1.3-0.9,1.9c-0.3,0.4-0.9,0.7-1.4,0.7
				c-0.1,0-0.2,0-0.2,0c-5.4-1.3-10.7-1.9-16.1-1.9c-8.8,0-17.5,1.7-26.2,4.6c-4.1,1.4-8.2,3.1-12.1,5.1c-2.1,1.1-3.9,2.5-5.6,4.2
				c-1.5,1.2-2,3.2-1.3,5c0.8,1.8,2.7,2.4,4.6,2.6c0.2,0,0.5,0,0.7,0c3.8,0,7-2.8,7.4-6.6c0.1-0.8,0-1.6-0.1-2.4
				c-0.1-0.7-0.3-1.2-0.4-2.3l8.1-3.1c1.7,4.4,0.4,9.4-3.3,12.4c-3.3,2.7-7.5,4.2-11.7,4.2c-1.1,0-2.2-0.1-3.2-0.3
				c-4.9-0.9-7.2-5.8-4.7-10c1.2-1.8,2.8-3.3,4.5-4.6c2.3-1.7,4.7-3.3,7.1-4.8c0.9-0.4,1.3-1.3,1-2.2c-0.7-3-1.3-6-2.1-9.1
				c-0.3,0.1-0.6,0.2-0.9,0.3c-1.2,0.6-2.4,0.9-3.7,0.9c-2.7,0-5.2-1.3-6.8-3.6c-1-1.6-1.3-3.7-0.8-5.6c0.5-2.1,1.2-4.1,1.9-6.2
				c0.2-0.5,0.3-1,0.1-1.6c-0.6,0.9-1.2,1.6-1.8,2.5c-3.7,6.5-6.6,13.4-8.7,20.6c-1.7,5.5-2.9,11.2-4.3,16.7c-0.3,0.6-0.8,1-1.3,1
				c-2.3-0.4-4.5-1.4-5.2-3.6c-0.6-1.5-0.2-3.4,0-5.1c0.5-3.9,1-7.9,1.1-12c-0.3,0.6-0.6,1.1-0.9,1.7c-2.7,5.8-5.4,11.6-9.7,16.4
				c-1.8,2.1-3.8,4.1-6.6,4.8c-1,0.2-2,0.3-3,0.3c-5.6,0-11.6-3.2-12.5-11.2c-0.2-3.1-0.2-6.2-0.1-9.3c-0.3,0.1-0.6,0.3-0.9,0.5
				c-2.5,1.7-4.9,3.5-7.4,5.2c-0.5,0.4-1,0.9-1.3,1.3c-1.5,1.7-3,3.4-4.8,4.9c-2.6,2.2-4.7,3.6-7.4,3.6c-1.7,0-3.6-0.5-5.9-1.7
				c-0.4,1.7-0.7,3.3-1,4.9c-1.3,8-2.1,16.1-2.2,24.2c0,1.5-0.4,2.1-1.4,2.1c-0.3,0-0.8-0.1-1.3-0.2c-1-0.3-1.9-0.8-2.9-1.2
				c-1.7-0.8-2.7-2.6-2.5-4.5c0.3-4.2,0.3-8.4,0.5-12.6c0.1-1.3-0.5-1.8-1.6-1.8c-7.3-0.3-14.6-0.7-21.9-0.7c-4.5,0-9,0.2-13.5,0.6
				c-5.9,0.6-11.8,1-17.6,1.5c-2,0.2-3.9,0.7-5.9,1V95c4,1.1,8.1,2,11.9,3.5c3.8,1.5,7.4,3.6,11.2,5.6c0.1-0.4,0.1-0.9,0.2-1.3
				c0.1-2.3,0.2-4.6,0.5-6.8c0-0.5,0.6-1.1,0.9-1.2c2.6-0.3,5.1-0.3,7.8-0.5c-0.4,3.3-0.8,6.5-1,9.6c-0.2,1.7-0.2,3.4-0.3,5
				c0,1.1-0.5,1.7-1.6,1.7c-0.1,0-0.2,0-0.3,0c-2.5-0.1-4.5-1.3-6.4-2.7c-3.1-2.1-6.2-4.3-9.4-6.1c-5.6-3.1-11.8-4.7-18.1-5.7
				c-2.9-0.6-4.9-3.5-4.5-6.5c0.1-0.8,0.7-1.3,1.4-1.3c0.1,0,0.1,0,0.2,0c0.2,0,0.3,0.1,0.5,0.1c2.9,0.8,5.8,1.1,8.7,1.1
				c4,0,8.1-0.5,12.2-1c3.2-0.4,6.4-0.8,9.5-1.2c0.7-0.2,1.2-0.7,1.4-1.3c1.3-7.4,2.7-14.8,3.9-22.2c-0.1-0.3-0.2-0.5-0.4-0.8
				c-0.9,1.1-1.7,2.1-2.8,3c-4,3.1-7.7,6.8-10.9,10.7c-2.1,2.6-5,4.3-8.4,4.8c-0.7,0.2-1.5,0.2-2.2,0.2c-3.2,0-6.3-1.5-8.3-4.2
				c-2.4-2.9-3.5-6.8-3-10.5c0.8-7.3,2.9-14.3,7.6-20.1c1.4-1.7,3.1-3.1,4.9-4.5c1-0.8,2.1-1.1,3.2-1.1c0.9,0,1.9,0.2,2.8,0.5
				c1.7,0.5,3.4,1,5.1,1.4c4.9,1.1,8.7,4.9,8.4,9c-0.2,2.8-0.7,5.4-1.1,8.1c-0.3,1.6-1,3.2-1.3,4.8c0.2,0,0.4,0.1,0.4,0.1
				c3.8-3.6,7.2-7.4,8.8-12.6c0.9-2.8,1.8-5.4,2.9-8.1c0.2-1.1,1.2-1.9,2.3-1.9c0.2,0,0.3,0,0.5,0.1c0.2,0.1,0.5,0.1,0.7,0.3
				c2,0.9,4,1.6,6,2.6c1.2,0.6,1.4,1.4,0.5,2.7c-1.8,2.7-3,5.8-3.5,9c0.5-0.8,0.9-1.5,1.4-2.2c2.7-3.6,5-7.4,8-10.8
				c1.2-1.4,2.6-2,4.1-2c1.5,0,3,0.7,4.5,1.9c4.3,3.6,4.7,8.2,3.1,13c-1.1,3.6-2.8,7.2-4.2,10.7c-0.2,0.6-0.5,1-0.9,2.1
				c0.6-0.3,1-0.6,1.5-1c1.3-1.2,2.7-2.5,3.9-3.8c2.3-2.3,3.8-5.2,4.4-8.4c1.1-4.8,2.5-9.3,4.1-13.9c0.7-2.1,1.3-3,2.5-3
				c0.6,0,1.4,0.2,2.5,0.6c1.8,0.7,3.5,1.5,5.2,2.4c1,0.5,1.1,1.2,0.4,2.3c-1.9,2.8-3.1,5.9-3.6,9.2c0.3-0.5,0.6-1,0.9-1.3
				c2.1-3.1,4.1-6.4,6.4-9.4c1.5-2.1,3.4-4.1,6.1-4.1c0.5,0,1,0.1,1.5,0.2c3.4,0.9,6.1,3.7,6.7,7.2c0.4,2.6,0.2,5.2-0.6,7.7
				c-1,3.6-2.7,7-4.1,10.6c-0.3,0.5-0.4,1-0.5,1.6c3.1-2.3,6-4.8,7.7-8.3c1.9-4,4.1-7.7,7.6-10.6c2-1.6,4.5-2.4,6.9-2.4
				c3.2,0,6.4,1.4,8.6,4.1c0.9,1.1,1.5,2.4,2,3.8c0.9,3.1-0.1,6.1-1.8,8.7c-3.5,5.6-9.4,9.2-16,10c-1.4,0.2-1.7,0.8-1.5,1.9
				c0.2,1.7,0.6,3.4,1.1,5c1,2.3,2.9,3.6,4.9,3.6c1.2,0,2.4-0.4,3.5-1.3c1.8-1.4,3.3-3.1,4.7-4.9c4.3-6,7-12.8,9.6-19.6
				c2.3-5.8,4.2-11.6,6.3-17.4c0.6-1.5,1-2.2,1.9-2.2c0.5,0,1,0.2,1.8,0.4c0.3,0.1,0.7,0.2,1,0.4c3.8,1.6,3.8,1.9,2.5,5.7
				c-1.4,4-2.6,8.1-3.9,12.2c-0.1,0.4-0.2,0.9-0.2,1.3l0.4,0c0.3-0.6,0.6-1,0.9-1.6c2.6-5.5,5.8-10.6,9.6-15.5
				C414.7,38.6,416.3,37.5,418,37.5 M336.9,77.6c1.4,0,2.7-0.6,3.6-1.8c1.3-1.4,2.5-3,3.5-4.8c4.2-6.8,6.8-14.5,7.4-22.4
				c0.1-0.4,0.1-0.7,0-1c-0.4-0.8-0.7-2-1.2-2.2c-0.1,0-0.1,0-0.2,0c-0.6,0-1.5,0.6-2.2,1c-0.4,0.3-0.7,0.7-1,1
				c-3.6,4.5-6.7,9.5-8.8,14.8c-1.6,3.9-2.9,7.9-4.3,11.9c-0.7,2-0.2,2.7,1.9,3.3C336.1,77.6,336.5,77.6,336.9,77.6 M264.2,74.6
				c0.4,0,1-0.1,1.8-0.3c1.8-0.4,4.1-0.2,5.2-2.3c3.5-6.1,5.5-13,5.9-20.2c-0.1-1.1-0.3-2.4-0.5-3.5c-0.4-1.7-1.5-2.5-2.7-2.5
				c-0.6,0-1.3,0.2-2,0.6c-1.1,0.7-2.1,1.5-2.9,2.6c-4.8,6.6-7.1,14.6-6.4,22.7C262.8,73.8,263,74.6,264.2,74.6 M299.8,79.4
				c2.5,0,4.5-1.2,6-3.4c3.9-5.7,6.6-12.2,7.9-18.9c0.5-2.3,0.7-4.6,0.8-6.9c0-0.9-0.5-1.6-1.2-2.1c-0.1,0-0.1,0-0.2,0
				c-0.6,0-1.4,0.6-2.1,0.9c-0.4,0.4-0.8,0.8-1,1.1c-4.5,5.7-8.1,12.1-10.6,18.9c-1,3.1-1.9,6.4-3,9.7
				C297.5,79.2,298.7,79.4,299.8,79.4 M370.1,70.2c1.4,0,2.7-0.5,3.7-1.5c4.4-3.2,6.6-7.8,7.4-13c0.2-1,0.2-1.8,0.1-2.8
				c-0.2-1.3-0.9-2.1-1.9-2.1c-0.5,0-1,0.2-1.5,0.6c-1,0.8-1.9,1.7-2.7,2.8c-3.4,4.7-5.2,10-6.2,16
				C369.4,70.2,369.7,70.2,370.1,70.2 M325.7,67.3c-0.8,0.7-1.1,1-1.6,1.4c-2.7,2.1-5.3,4.1-8.1,6.2c-1,0.8-2,1.6-2.9,2.6
				c-1.9,1.8-3.6,3.8-5.6,5.5c-1.7,1.5-3.8,2.4-6.1,2.4c-0.6,0-1.3-0.1-1.9-0.2c-1.3-0.4-2.7-0.9-3.9-1.4c-0.1,1-0.3,1.9-0.4,2.9
				h27.4C323.7,80.1,324.6,74,325.7,67.3 M418,35.5c-2.3,0-4.5,1.2-6.6,3.7c0,0,0,0,0,0.1c-0.9,1.2-1.8,2.4-2.7,3.6
				c0.8-3.2,0.1-4.5-4-6.3c-0.4-0.2-0.8-0.4-1.1-0.5l-0.1,0c-1.1-0.4-1.8-0.6-2.4-0.6c-2.5,0-3.3,2.2-3.8,3.5
				c-0.7,2-1.4,3.9-2.1,5.8c-1.3,3.8-2.7,7.7-4.2,11.5c-0.2,0.4-0.3,0.8-0.5,1.2c0.2-1.5,0.1-2.9-0.3-4.4c0,0,0-0.1,0-0.1
				c-0.5-1.6-1.3-3-2.3-4.4c0,0,0,0,0,0c-2.5-3.1-6.2-4.9-10.2-4.9c-2.9,0-5.8,1-8.1,2.9c-4,3.3-6.4,7.5-8.2,11.3
				c-0.2,0.4-0.4,0.8-0.7,1.2c0.5-1.2,0.9-2.4,1.2-3.7c0.8-2.7,1.1-5.7,0.6-8.6c-0.7-4.3-3.9-7.8-8.1-8.9c-0.7-0.2-1.4-0.3-2-0.3
				c-3.6,0-6,2.6-7.6,4.9c-0.3-0.5-0.8-0.9-1.6-1.3c-1.7-0.9-3.5-1.8-5.4-2.5c-1.1-0.4-2.2-0.7-3.2-0.7c-2.9,0-3.8,2.7-4.4,4.3
				c-1.6,4.5-3,9.1-4.1,14.1c0,0,0,0.1,0,0.1c-0.4,2.1-1.3,4.1-2.5,5.8c0.6-1.5,1.2-3,1.6-4.6c2-6.3,0.7-11.4-3.8-15.2
				c-1.8-1.6-3.8-2.4-5.8-2.4c-2.1,0-4,0.9-5.6,2.7c-0.7,0.9-1.4,1.7-2.1,2.6c-0.3-0.6-0.9-1.3-1.9-1.8c-1.4-0.6-2.7-1.2-4.1-1.8
				c-0.6-0.2-1.2-0.5-1.7-0.7c-0.4-0.2-0.7-0.3-0.9-0.4c0,0,0.1,0,0.1,0.1c-0.2-0.1-0.3-0.1-0.5-0.2c-0.3-0.1-0.6-0.1-0.9-0.1
				c-2,0-3.7,1.4-4.2,3.2c-1.1,2.8-2,5.5-2.9,8.1c-0.8,2.5-2.1,4.7-3.7,6.8c0.4-2.1,0.7-4.3,0.9-6.5c0.3-5-3.9-9.7-9.9-11.1
				c-1.1-0.2-2.2-0.6-3.3-0.9c-0.6-0.2-1.1-0.3-1.7-0.5c-1.3-0.4-2.4-0.6-3.4-0.6c-1.6,0-3.1,0.5-4.4,1.5c-2.3,1.7-3.9,3.2-5.3,4.8
				c-4.5,5.5-7.2,12.4-8.1,21.1c-0.5,4.1,0.7,8.5,3.5,11.9c2.4,3.2,6,5,9.9,5c0.9,0,1.7-0.1,2.6-0.3c3.8-0.6,7.1-2.5,9.6-5.5
				c2.9-3.5,6.1-6.8,9.7-9.7c-1,5.7-2,11.5-3,17.1c-3.1,0.5-6.3,0.8-9.2,1.2c-0.6,0.1-1.3,0.1-1.9,0.2c-3.5,0.4-6.7,0.8-10,0.8
				c-3,0-5.7-0.3-8.2-1c-0.1,0-0.2,0-0.2-0.1c-0.1,0-0.4-0.1-0.6-0.1c-0.1,0-0.2,0-0.3,0c-1.8,0-3.2,1.3-3.4,3.1
				c-0.6,4,2.1,7.9,6.1,8.7c0,0,0,0,0.1,0c5.1,0.8,11.6,2.2,17.4,5.5c2.4,1.3,4.6,2.9,7,4.5c0.7,0.5,1.5,1,2.2,1.5
				c2,1.4,4.3,2.9,7.4,3c0.1,0,0.2,0,0.4,0c2.1,0,3.5-1.4,3.6-3.7c0-0.5,0.1-1.1,0.1-1.7c0-1.1,0.1-2.2,0.2-3.2
				c0.2-2.6,0.5-5.1,0.8-7.7l0.2-1.9c0-0.4,0-0.9-0.3-1.2c0.9,0,1.9,0,2.8,0c5.4,0,11,0.3,16.3,0.5c1.7,0.1,3.4,0.2,5.1,0.2
				c-0.1,1.6-0.1,3.2-0.2,4.8c-0.1,2.6-0.1,5-0.3,7.5c-0.3,2.8,1.2,5.3,3.6,6.4c1,0.5,2,1,3.1,1.3c0.7,0.2,1.3,0.3,1.9,0.3
				c1,0,3.4-0.4,3.4-4.1c0.1-7.8,0.8-15.9,2.2-23.9c0.1-0.8,0.3-1.6,0.4-2.4c1.6,0.6,3.1,0.9,4.5,0.9c3.3,0,5.8-1.6,8.7-4.1
				c1.8-1.6,3.4-3.4,4.9-5.1c0,0,0-0.1,0.1-0.1c0.3-0.3,0.6-0.7,1-1c1.2-0.8,2.4-1.7,3.7-2.6c0.4-0.3,0.9-0.6,1.3-1
				c0,2,0.1,3.9,0.2,5.7c0,0,0,0.1,0,0.1c1.2,9.6,8.5,13,14.5,13c1.2,0,2.3-0.1,3.4-0.4c3.3-0.8,5.6-3.1,7.7-5.4
				c2.4-2.7,4.3-5.7,6.1-8.9c0,0.4-0.1,0.8-0.1,1.1c0,0.3-0.1,0.5-0.1,0.8c-0.2,1.7-0.4,3.5,0.2,5.3c0.9,2.6,3.3,4.3,6.8,4.9
				c0.1,0,0.2,0,0.3,0c0.1,0,0.2,0,0.3,0c1.2-0.2,2.2-1,2.8-2.1c0.1-0.1,0.1-0.3,0.1-0.4c0.5-1.9,1-3.9,1.4-5.9
				c0.8-3.6,1.7-7.2,2.8-10.8c1.2-4.3,2.7-8.3,4.4-12.2c0.2,1.1,0.6,2.1,1.2,3c1.9,2.8,5.1,4.5,8.5,4.5c1,0,2.1-0.2,3.1-0.5
				c0.5,2.1,1,4.3,1.6,6.9c0,0-0.1,0-0.1,0c-2.4,1.4-4.8,3-7.3,4.9c-1.9,1.4-3.6,3.1-4.9,5c0,0,0,0.1-0.1,0.1
				c-1.6,2.5-1.8,5.5-0.6,8c1.2,2.6,3.6,4.4,6.7,5c1.2,0.2,2.4,0.3,3.6,0.3c4.7,0,9.3-1.6,12.9-4.6c4.3-3.4,5.9-9.5,3.9-14.6
				c-0.1-0.2-0.2-0.4-0.4-0.6c8.2-2.6,15.8-3.8,23.4-3.8c5.3,0,10.5,0.6,15.6,1.9c0,0,0.1,0,0.1,0c0.2,0,0.4,0,0.6,0
				c1.1,0,2.2-0.5,3-1.4c0.7-0.8,1.1-1.8,1.3-2.8c0.3-1.8-0.1-3.5-1.1-5c-1-1.5-2.6-2.5-4.3-2.8c-3.5-0.6-6.7-1-9.8-1.1
				c-0.3,0-0.7,0-1,0c-7.2,0-14.4,1.1-21.4,3.1c-2.4,0.7-4.8,1.5-7.4,2.3c-0.1-0.5-0.2-1-0.3-1.4c-0.1-0.3-0.1-0.6-0.2-0.9
				c1.2,0.6,2.6,0.8,3.7,0.8c2.2,0,4-0.7,5.1-2.1c2.3-2.8,2.9-6.5,1.8-10.4c-1.1-3.9-3.9-7.3-6.8-8.3c-1-0.3-2-0.6-3-0.7
				c-0.1,0-0.1,0-0.2,0c-0.1,0-0.3,0-0.4,0c-7.4,0-14,6.4-14.4,13.9c0,0.8-0.7,1.5-1.5,1.5c-0.1-0.1-0.3-0.6-0.3-1.4
				c0.5-4.5,2.1-7.9,4.8-10.3c0,0,0,0,0.1,0c0.7-0.7,1.7-1.7,1.6-3.2c-0.1-1.4-1.1-2.4-1.8-3C421.9,36.4,419.9,35.5,418,35.5
				L418,35.5z M348.9,48.1c0.1-0.1,0.3-0.1,0.4-0.2c0,0.1,0.1,0.2,0.1,0.4c0,0.1,0,0.2-0.1,0.3c-0.6,7.5-3.1,15-7.1,21.6
				c-1.1,1.8-2.2,3.3-3.3,4.4c0,0.1-0.1,0.1-0.1,0.2c-0.5,0.6-1.2,1-2,1c-0.2,0-0.5,0-0.7-0.1c-0.3-0.1-0.6-0.2-0.7-0.3
				c0-0.1,0.1-0.3,0.1-0.5c1.3-3.9,2.6-7.9,4.2-11.8c2.1-5.1,5-9.9,8.6-14.3c0,0,0,0,0-0.1C348.6,48.4,348.8,48.2,348.9,48.1
				L348.9,48.1z M264.7,72.6c0-0.2-0.1-0.5-0.1-0.9c0,0,0,0,0-0.1c-0.7-7.6,1.4-15.2,6-21.3c0.6-0.8,1.3-1.5,2.3-2
				c0.5-0.3,0.9-0.4,1-0.4c0.4,0,0.7,0.6,0.8,1c0.2,1,0.3,2.1,0.4,3.1c-0.4,6.8-2.3,13.4-5.6,19.1c-0.4,0.7-1.1,0.9-2.6,1.1
				c-0.4,0.1-0.9,0.1-1.3,0.2c0,0,0,0-0.1,0C265.2,72.5,264.9,72.5,264.7,72.6L264.7,72.6z M312.1,50.6c0.1-0.1,0.2-0.1,0.3-0.2
				c0,0,0,0,0,0c-0.1,2.6-0.3,4.5-0.7,6.3c-1.3,6.6-3.9,12.7-7.6,18.2c-1.1,1.7-2.6,2.5-4.3,2.5c-0.3,0-0.6,0-0.9-0.1
				c0.7-2.2,1.3-4.3,2-6.3l0.4-1.4c2.3-6.5,5.8-12.7,10.2-18.3C311.6,51.1,311.9,50.8,312.1,50.6L312.1,50.6z M434.8,54.5
				c0.2-1.1,0.5-2.2,1.1-3.1C436.1,52.5,435.7,53.7,434.8,54.5L434.8,54.5z M371.6,67.9c1.1-5,2.8-9.1,5.3-12.5
				c0.7-1,1.4-1.8,2.2-2.3c0,0,0.1-0.1,0.1-0.1c0,0.1,0,0.1,0.1,0.2c0.1,0.8,0.1,1.5-0.1,2.1c0,0,0,0,0,0.1c-0.9,5.2-3,9.1-6.6,11.7
				c-0.1,0.1-0.2,0.1-0.2,0.2C372.1,67.5,371.8,67.7,371.6,67.9L371.6,67.9z M370.9,74.5c7.1-0.9,13.3-4.8,17.1-10.8
				c-1.8,4.2-3.8,8.2-6.5,11.9c-1.4,1.9-2.8,3.4-4.3,4.5c-0.7,0.5-1.5,0.8-2.3,0.8c-1.3,0-2.4-0.8-3.1-2.3
				C371.5,77.4,371.1,76,370.9,74.5L370.9,74.5z M308.7,84.5c1.3-1.1,2.4-2.3,3.5-3.4c0.7-0.8,1.4-1.5,2.2-2.2c0,0,0,0,0,0
				c1-1,1.8-1.7,2.7-2.4l1.6-1.2c1.4-1.1,2.8-2.1,4.1-3.1c-0.7,4.2-1.3,8.3-2,12.4h-12.2C308.6,84.6,308.7,84.5,308.7,84.5
				L308.7,84.5z M423,78.9c0.8-0.4,1.5-0.8,2.3-1.1c0,0,0,0.1,0,0.1c0.1,0.8,0.2,1.3,0.3,1.8c0,0.2,0.1,0.4,0.1,0.6
				c0.1,0.6,0.2,1.3,0.1,1.8c0,0,0,0,0,0.1c-0.3,2.7-2.6,4.8-5.4,4.8c-0.2,0-0.4,0-0.5,0c-2.3-0.2-2.7-1-2.9-1.3
				c-0.4-1-0.1-2.1,0.7-2.8c0.1,0,0.1-0.1,0.2-0.1C419.4,81.1,421,79.9,423,78.9L423,78.9z M269.5,95.1c2.3-0.2,4.5-0.4,6.7-0.6
				c2.5-0.2,5-0.4,7.5-0.6c-0.4,0.5-0.7,1.2-0.7,1.8c-0.2,1.7-0.3,3.5-0.4,5.2c-2.8-1.5-5.7-3.1-8.7-4.3
				C272.5,96.1,271,95.6,269.5,95.1L269.5,95.1z"/>
		</g>
		<g>
			<path class="st0" d="M91.9,88.6c-0.6,0-1.2,0-1.9-0.1c-3.6-0.1-6.6-2.3-7.2-5.3c-0.8-3.3,0.9-6.8,4-8.3c0,0,0.1,0,0.1-0.1
				c2.3-0.8,4.7-1.4,7.2-1.8c0.9-0.2,1.8-0.3,2.9-0.3c0.2,0,0.4,0,0.6,0c-0.5-2.1-1.1-4.2-1.6-6.4c-0.3-1.1-0.6-2.2-0.8-3.3
				c0,0.1-0.1,0.1-0.1,0.2c-2.8,3.9-6.2,7.2-10.2,9.9c-0.7,0.6-1.3,1.2-1.7,1.8c-0.6,0.7-1.2,1.4-1.8,2.1c-1.2,1.4-2.5,2.9-3.8,4.1
				c-2.8,2.4-5.8,3.6-8.9,3.6c-1.7,0-3.4-0.4-5.1-1.2c-5-2.4-7.8-7-7.8-12.6c0-8,2.8-16.1,7.8-22.6c1.4-1.7,3-3.2,4.8-4.5
				c1.3-1,2.6-1.5,4.2-1.5c1.1,0,2.3,0.3,3.7,0.8c1.2,0.5,2.3,0.8,3.4,1c2.7,0.4,5.3,1.7,7.2,3.5c1.8,1.6,2.8,4,2.7,6.4
				c0,3.3-0.5,6.7-1.6,10.4c1.3-1.5,2.5-3,3.8-4.5c1.6-1.9,2.4-4.3,2.3-6.9c-0.2-6.1,5.3-12,11.6-12.3c0.2,0,0.4,0,0.6,0
				c4,0,6.9,2.2,8.6,6.4c1.4,3.5,1.3,6.5-0.4,9.2c-0.8,1.4-1.8,2.8-3.7,2.8c-0.7,0-1.4-0.2-2.5-0.5c-1.3-0.6-2.5-1.2-3.5-1.8
				c-0.1-0.1-0.2-0.1-0.2-0.2c0.2,4.3,1.2,8.5,3,12.4c1.2-0.8,2.3-1.8,3.5-2.8c2.1-2.2,4.1-4.7,6.1-7.1c2.2-2.7,2.8-5.9,3.5-9.3
				c0.2-0.9,0.3-1.7,0.5-2.6c0.4-2,0.9-4.1,1.3-6.1c0.5-2,0.9-4,1.3-6.1c0.3-1.5,1.1-2.3,2.7-2.4c2.4-0.1,5-0.4,7.6-0.7l1.1-0.1
				c0,0,0.1,0,0.1,0c0.3,0,0.6,0.1,0.8,0.3c0.2,0.2,0.3,0.6,0.2,0.9c-0.4,1.7-0.9,3.4-1.4,5.1c-0.7,2.6-1.4,5.1-2,7.6
				c-2,9.1-3.9,18.5-5.8,27.6c-0.3,2-0.4,3.6-0.4,5.1c0,0.1,0.1,0.2,0.1,0.3c0.1-0.1,0.1-0.1,0.2-0.2c2.3-3,4.5-5.9,6.4-8.7
				c0.1-0.2,0-0.5,0-0.7c0,0,0-0.1,0-0.1c-2.1-11,1.1-21.3,9.4-30.4c1.8-2.1,4.4-3.5,7.2-3.8c0.4,0,0.8-0.1,1.2-0.1
				c5.1,0,8.3,3.3,10.5,6.3c2.3,3,2.3,6.8,0.1,10.9c-3.5,6.5-9.3,10.5-17.2,11.7c-0.9,0.1-0.9,0.1-0.9,0.9c0.1,0.9,0.2,1.8,0.4,2.6
				c0.8,3.4,2.5,5,5.4,5c0.7,0,1.4-0.1,2.3-0.3c4.8-1.2,9-3.8,12.2-7.6c0.6-0.7,0.8-2.1,0.9-3.5c0.1-0.5,0.1-0.9,0.2-1.3
				c2.8-15.8,5.6-30.1,10.2-44.1c0.7-1.8,1.4-3.5,2.3-5.2c0.4-1.2,1.4-2,2.7-2c0.3,0,0.6,0,0.9,0.1c0.2,0,0.4,0.1,0.5,0.2
				c0,0,0,0,0.1,0c0.5,0.2,1,0.3,1.5,0.4c0.1,0,0.1,0,0.2,0c5.9,2,6.9,3.3,7.6,9.8c1.4,15-3.2,28.5-13.6,39.9
				c-0.4,0.6-0.7,1.2-0.7,1.7l-0.4,2.2c-0.8,4.8-1.6,9.3-2.4,14c0,0.2,0,0.3,0,0.5c7.5-5.7,13.6-13.2,17.5-21.7c0,0,0-0.1,0.1-0.1
				c0.4-0.8,1-2.1,2.4-2.1c0.3,0,0.7,0.1,1.1,0.2c0.7,0.3,1.2,0.8,1.5,1.4c0.3,0.7,0.2,1.6-0.3,2.7c-3.6,7.3-8.3,14-13.9,19.8
				c-2.7,2.6-5.6,5-8.7,7c-1.2,0.7-2.5,1-3.8,1c-0.4,0-0.9,0-1.3-0.1c-3.2-0.4-5-2.8-5.2-7c-0.1-1.2,0-2.4,0.1-3.5
				c0-0.4,0.1-0.8,0.1-1.1c0-0.4,0-0.8,0-1.2c-0.7,0.5-1.3,1-2,1.5c-4.1,3-8.1,4.6-12,5c-0.7,0.1-1.3,0.1-1.9,0.1
				c-4.4,0-7.9-1.4-10.6-4.2c0,0,0,0,0,0.1c-0.4,0.6-0.8,1.1-1.2,1.6c-2.4,3.1-4.7,5.6-6.9,7.8c-1.2,1.2-2.9,1.9-4.6,1.9
				c-1.9,0-3.7-0.8-5-2.2c-0.3-0.3-0.7-0.8-0.9-1.3c-0.5-0.8-0.8-1.6-0.9-2.4c-0.4-2.7-0.2-5.5,0-8.3c0-0.6,0.1-1.2,0.1-1.8
				c0.1-1.3,0.2-2.5,0.4-3.8c-1.2,1.1-2.5,2.2-3.7,3.3c-1.3,1.2-2.7,2.4-4,3.6c-0.4,0.3-0.6,0.6-0.6,1c0.1,4.1-1.8,7.9-5.1,10.2
				C100.8,87.1,96.4,88.6,91.9,88.6z M96.2,77.7c-2.2,0.2-4.2,0.4-6.1,0.8c-1.2,0.3-2,1.5-1.7,2.7c0.2,1,1.1,1.8,2.2,1.8
				c0.2,0,0.4,0,0.5-0.1c0.1,0,0.1,0,0.2,0c0,0,0.1,0,0.1-0.1c0,0,0.1,0,0.1,0c2.5-0.9,4.2-2.6,5.6-5.2
				C96.8,77.6,96.5,77.7,96.2,77.7z M72.7,51.5c-1.2,1.8-2.3,3.7-3.7,6.5c-2.6,5.7-3.5,11.3-2.7,16.6c0.3,1.7,0.7,1.7,1.4,1.7
				c0.3,0,0.6,0,1.1-0.1c2.1-0.3,4-1.8,5-3.8c2.8-5.5,4.5-11.6,4.9-18.1l0-1.3l0-0.4c-0.2-1.9-0.3-3-1.7-3.4
				c-0.3-0.1-0.5-0.1-0.8-0.1c-1.2,0-2.2,1.1-3.2,2.2L72.7,51.5z M153,42.3c-0.8,0-1.4,0.8-2.1,1.6l-0.3,0.4
				c-2.5,3.1-4.3,6.5-5.3,10.3c-0.4,1.3-0.7,2.7-1,4.2c-0.1,0.3-0.1,0.6-0.2,0.9c1-0.4,2-0.8,3-1.4c4-3,6.3-7.1,7-12.6
				c0-0.2,0.1-0.4,0.1-0.6c0.2-1.6,0.2-2.2-0.5-2.5C153.4,42.3,153.2,42.3,153,42.3z M107.3,47.8c-0.3,0.1-1,0.5-1.2,1
				c-1.2,2-1.7,4.4-1.5,6.7c0.1-0.1,0.2-0.2,0.3-0.3c2.7-1.6,3.7-3.4,3.1-6.1C107.9,48.6,107.5,48,107.3,47.8z M185.6,22.8
				c-2.7,7.8-4.6,15.7-6.4,23.9C182.9,40.6,186,29,185.6,22.8z"/>
			<path class="st1" d="M180.1,9.2c0.2,0,0.4,0,0.7,0.1c0.1,0,0.2,0.1,0.4,0.2c0.6,0.2,1.1,0.4,1.7,0.5c5.6,1.9,6.3,2.9,6.9,8.9
				c1.4,15.1-3.2,28-13.4,39.2c-0.5,0.7-0.9,1.4-1,2.2c-1,5.4-1.9,10.7-2.8,16.2c-0.1,0.8-0.1,1.6,0,2.4c0.6-0.3,1-0.5,1.3-0.8
				c7.8-5.8,14-13.4,18.1-22.2c0.4-0.8,0.8-1.6,1.6-1.6c0.2,0,0.4,0,0.7,0.2c1.3,0.6,1.1,1.7,0.7,2.8c-3.5,7.1-8.1,13.7-13.7,19.5
				c-2.7,2.6-5.5,4.8-8.6,6.8c-1,0.6-2.1,0.9-3.2,0.9c-0.4,0-0.8,0-1.2-0.1c-2.9-0.4-4.2-2.5-4.4-6.1c-0.1-1.5,0.1-3,0.2-4.6
				c0-1,0.1-2.1,0.2-3.4c-1.4,1.1-2.6,2-3.7,2.9c-3.4,2.5-7.2,4.4-11.5,4.8c-0.6,0-1.2,0.1-1.8,0.1c-4.1,0-7.8-1.2-10.7-4.8
				c-0.8,1-1.2,1.9-1.9,2.7c-2.1,2.7-4.4,5.3-6.8,7.7c-1.1,1-2.5,1.6-3.9,1.6c-1.5,0-3.1-0.6-4.2-1.9c-0.3-0.3-0.6-0.7-0.8-1
				c-0.4-0.7-0.7-1.3-0.8-2.1c-0.5-3.2-0.1-6.6,0.1-9.9c0.1-2,0.5-4,0.8-6.1l-0.7-0.7c-0.2,0.7-0.6,1.2-1,1.8
				c-2.7,2.5-5.4,4.8-8.1,7.2c-0.5,0.4-0.9,1-1,1.6c0.1,3.7-1.6,7.3-4.7,9.5c-3.3,2.7-7.6,4.2-11.8,4.2c-0.6,0-1.2,0-1.8-0.1
				c-3.2-0.1-5.8-2-6.3-4.5c-0.7-2.9,0.8-5.9,3.4-7.2c2.3-0.8,4.7-1.3,7-1.7c1.3-0.3,2.7-0.3,4.6-0.5c-1-4.3-2.1-8.3-3.2-12.8
				c-0.7,0.9-1,1.3-1.4,1.9c-2.8,3.8-6.1,7-10,9.7c-0.7,0.6-1.3,1.2-1.9,2c-1.8,2-3.5,4.3-5.5,6.1c-2.5,2.1-5.3,3.4-8.2,3.4
				c-1.5,0-3.1-0.3-4.7-1.1c-4.6-2.2-7.2-6.4-7.2-11.7c0-8,2.8-15.7,7.6-22c1.3-1.6,2.9-3,4.6-4.3c1.2-0.9,2.4-1.3,3.6-1.3
				c1.1,0,2.2,0.3,3.3,0.7c1.1,0.5,2.4,0.9,3.6,1c2.5,0.4,4.8,1.5,6.7,3.2c1.6,1.4,2.5,3.5,2.4,5.6c0,4-0.8,7.9-2,11.7
				c-0.2,0.6-0.3,1-0.7,2.1c0.5-0.3,1-0.7,1.4-1c1.7-2,3.5-4.1,5.2-6.2c1.8-2.1,2.7-4.8,2.6-7.6c-0.2-5.7,5-11,10.6-11.3
				c0.2,0,0.4,0,0.5,0c3.6,0,6.1,1.9,7.7,5.8c1.1,2.8,1.4,5.5-0.3,8.3c-1,1.6-1.7,2.3-2.8,2.3c-0.6,0-1.3-0.2-2.1-0.5
				c-1.1-0.5-2.3-1-3.3-1.7c3.1-1.8,4.3-4.1,3.6-7.1c-0.2-0.9-1-2.1-1.6-2.1c-0.7,0-1.8,0.8-2.2,1.5c-1.2,2.2-1.8,4.8-1.6,7.2
				c0.1,5.2,1.3,10.4,3.6,15c1.6-1.1,3.1-2.3,4.6-3.6c2.2-2.3,4.2-4.8,6.2-7.2c2.9-3.6,3.2-8.1,4.2-12.3c0.9-4.1,1.8-8.1,2.7-12.2
				c0.2-1,0.7-1.5,1.8-1.6c2.8-0.1,5.6-0.5,8.7-0.9c-1.1,4.4-2.5,8.6-3.4,12.7c-2,9.1-3.9,18.4-5.8,27.6c-0.3,1.8-0.5,3.6-0.4,5.4
				c0.1,0.6,0.4,1,0.9,1.3c0,0,0.1,0,0.1,0c0.3,0,0.9-0.4,1.1-0.7c2.2-2.9,4.4-5.8,6.5-8.7c0.3-0.5,0.3-1,0.1-1.6
				c-2.2-11.5,1.5-21.2,9.1-29.6c1.6-1.9,4-3.2,6.6-3.5c0.4,0,0.7-0.1,1.1-0.1c4.3,0,7.2,2.6,9.7,5.9c2.4,3.1,1.7,6.7,0,9.8
				c-3.5,6.6-9.2,10.1-16.4,11.2c-1.4,0.2-1.8,0.7-1.7,2c0.1,1,0.2,1.9,0.4,2.8c0.9,3.9,3,5.8,6.4,5.8c0.8,0,1.6-0.1,2.5-0.3
				c4.9-1.2,9.4-4,12.7-7.9c1-1.2,1-3.5,1.3-5.3c2.7-14.8,5.4-29.6,10.2-43.9c0.7-1.7,1.4-3.4,2.3-5.1
				C178.6,9.7,179.3,9.2,180.1,9.2 M177.3,50.7c5.9-4.9,11.4-25.8,8.5-31.4C182,29.5,179.7,39.8,177.3,50.7 M143.4,60.9
				c1.5-0.5,2.9-1.1,4.3-1.9c4.5-3.3,6.8-7.9,7.4-13.3c0.2-1.5,0.8-3.4-1-4.2c-0.4-0.2-0.7-0.2-1-0.2c-1.4,0-2.3,1.3-3.1,2.3
				c-2.6,3.1-4.5,6.8-5.5,10.6c-0.6,1.9-1,4-1.4,6.1L143.4,60.9 M67.7,77.3c0.4,0,0.8,0,1.2-0.1c2.5-0.4,4.7-2.1,5.7-4.4
				c2.9-5.7,4.6-12,4.9-18.4V53c-0.2-1.9-0.2-4-2.4-4.8c-0.4-0.1-0.8-0.2-1.1-0.2c-1.6,0-2.8,1.3-3.9,2.5l-0.3,0.3
				c-1.4,2.1-2.7,4.4-3.8,6.7c-2.5,5.4-3.7,11.2-2.8,17.2C65.6,76.6,66.2,77.3,67.7,77.3 M98.7,76.4c-3.2,0.4-6.1,0.6-8.8,1.1
				c-1.7,0.4-2.9,2.1-2.5,3.9C87.7,83,89,84,90.5,84c0.2,0,0.5,0,0.7-0.1c0.2,0,0.4-0.1,0.6-0.2C95.1,82.5,97.2,80.2,98.7,76.4
				 M180.1,7.2c-1.6,0-3.1,1-3.6,2.6c-0.8,1.7-1.6,3.4-2.3,5.2c0,0,0,0.1,0,0.1c-4.7,14.1-7.4,28.4-10.2,44.2
				c-0.1,0.5-0.1,0.9-0.2,1.4c-0.1,1.1-0.3,2.5-0.7,3c-3.1,3.6-7.1,6.1-11.7,7.2c-0.7,0.2-1.4,0.2-2,0.2c-1.7,0-3.6-0.5-4.4-4.2
				c-0.2-0.7-0.2-1.5-0.3-2.3c8.2-1.3,14.3-5.4,17.9-12.3c3.1-5.6,1.6-9.6-0.2-11.9c-2.2-2.9-5.7-6.6-11.3-6.6c-0.4,0-0.8,0-1.3,0.1
				c-3,0.3-5.9,1.9-7.9,4.2c-8.5,9.4-11.8,19.9-9.6,31.3c0,0.1,0,0.2,0.1,0.3c0,0,0,0,0,0c-1.5,2.1-3.1,4.2-4.7,6.4
				c0.1-0.8,0.2-1.6,0.3-2.5c1.9-9,3.8-18.4,5.8-27.5c0.6-2.5,1.3-5,2-7.6c0.5-1.7,1-3.4,1.4-5.1c0.2-0.6,0-1.3-0.4-1.8
				c-0.4-0.4-0.9-0.7-1.5-0.7c-0.1,0-0.2,0-0.2,0l-1.1,0.1c-2.7,0.3-5.2,0.6-7.5,0.7c0,0-0.1,0-0.1,0c-2,0.2-3.2,1.3-3.6,3.2
				c-0.4,2-0.9,4.1-1.3,6c-0.4,2-0.9,4.1-1.3,6.1c-0.2,0.8-0.4,1.7-0.5,2.6c-0.6,3.2-1.2,6.3-3.2,8.8c-1.9,2.4-3.9,4.9-6,7.1
				c-0.8,0.7-1.6,1.4-2.3,2c-1.1-2.8-1.9-5.9-2.2-8.9c0.7,0.4,1.4,0.7,2.2,1c0,0,0.1,0,0.1,0c1.2,0.4,2,0.6,2.8,0.6
				c2.4,0,3.6-1.7,4.5-3.3c1.8-3,2-6.3,0.4-10.1c-1.8-4.7-5-7-9.5-7c-0.2,0-0.4,0-0.6,0c-6.8,0.3-12.8,6.7-12.6,13.4
				c0.1,2.4-0.7,4.6-2.1,6.2c0,0,0,0,0,0c-0.4,0.4-0.7,0.9-1.1,1.3c0.4-2.2,0.6-4.4,0.6-6.5c0.1-2.7-1-5.3-3-7.1
				c-2.1-2-4.8-3.3-7.7-3.7c-1-0.2-2.1-0.5-3.1-0.9c0,0,0,0-0.1,0c-1.5-0.6-2.8-0.9-4-0.9c-1.8,0-3.4,0.6-4.8,1.7
				c-1.8,1.3-3.5,2.9-4.9,4.6c0,0,0,0,0,0c-5.2,6.7-8,14.9-8,23.2c0,6,3,11,8.4,13.5c1.8,0.9,3.7,1.3,5.5,1.3c3.2,0,6.5-1.3,9.5-3.9
				c0,0,0,0,0,0c1.4-1.3,2.7-2.8,3.9-4.2c0.6-0.7,1.1-1.4,1.7-2c0,0,0.1-0.1,0.1-0.1c0.4-0.5,0.9-1.1,1.5-1.6
				c3.5-2.4,6.6-5.3,9.3-8.6c0.1,0.4,0.2,0.9,0.3,1.3c0.4,1.8,0.9,3.5,1.3,5.2c-0.8,0.1-1.6,0.1-2.4,0.3c-2.5,0.4-5,1-7.3,1.8
				c-0.1,0-0.2,0.1-0.3,0.1c-3.5,1.7-5.3,5.6-4.5,9.4c0.7,3.4,4,5.9,8.1,6.1c0.6,0.1,1.3,0.1,1.9,0.1c4.7,0,9.3-1.6,13-4.6
				c3.5-2.5,5.5-6.6,5.5-10.9c0-0.1,0.1-0.2,0.2-0.3c0,0,0.1-0.1,0.1-0.1c1.3-1.2,2.7-2.4,4-3.6c0.5-0.5,1.1-1,1.7-1.5
				c0,0.4-0.1,0.8-0.1,1.2c0,0.6-0.1,1.2-0.1,1.8c-0.2,2.8-0.4,5.6,0,8.5c0.1,1.2,0.6,2.1,1,2.7c0.3,0.5,0.7,1,1.1,1.5
				c1.5,1.6,3.5,2.5,5.7,2.5c2,0,3.9-0.8,5.3-2.1c2.2-2.2,4.5-4.7,7-7.9c0.2-0.3,0.4-0.5,0.6-0.8c2.7,2.5,6.2,3.7,10.5,3.7
				c0.6,0,1.3,0,2-0.1c4.2-0.4,8.3-2,12.5-5.1c0.1-0.1,0.2-0.1,0.3-0.2c0,0,0,0.1,0,0.1c-0.1,1.2-0.2,2.4-0.1,3.7
				c0.3,5.9,3.5,7.6,6.1,7.9c0.5,0.1,1,0.1,1.5,0.1c1.5,0,2.9-0.4,4.2-1.1c0,0,0.1,0,0.1-0.1c3.1-2.1,6.1-4.4,8.8-7.1c0,0,0,0,0,0
				c5.7-5.9,10.4-12.6,14-20c0,0,0,0,0-0.1c0.6-1.3,0.7-2.4,0.3-3.4c-0.2-0.6-0.8-1.5-2-2c-0.5-0.2-1-0.3-1.5-0.3
				c-2,0-2.9,1.8-3.3,2.6l0,0.1c0,0,0,0,0,0.1c-3.5,7.7-8.8,14.4-15.3,19.8c0.6-4,1.3-7.9,2.1-12l0.4-2.1c0,0,0-0.1,0-0.1
				c0-0.3,0.2-0.7,0.5-1.2c10.6-11.7,15.3-25.3,13.8-40.6c-0.8-6.9-2-8.5-8.3-10.6c-0.1,0-0.2-0.1-0.3-0.1c-0.4-0.1-0.8-0.2-1.2-0.3
				c-0.2-0.1-0.4-0.2-0.7-0.3C180.9,7.2,180.5,7.2,180.1,7.2L180.1,7.2z M145.5,57.9c0.2-1.1,0.5-2.1,0.8-3.1c0,0,0,0,0-0.1
				c1-3.6,2.7-6.9,5.1-9.9c0.1-0.1,0.2-0.2,0.3-0.3c0.4-0.4,1-1.2,1.3-1.2c0,0,0.1,0,0.3,0.1c0,0,0,0,0.1,0c0.1,0.3,0,1-0.1,1.4
				c0,0.2-0.1,0.4-0.1,0.7c-0.6,5.2-2.8,9-6.5,11.9C146.2,57.6,145.8,57.7,145.5,57.9L145.5,57.9z M105.6,53.4
				c0.2-1.5,0.6-2.9,1.3-4.2c0,0,0-0.1,0-0.1c0,0,0,0,0,0c0,0,0,0.1,0,0.1C107.3,50.6,107.3,52,105.6,53.4L105.6,53.4z M73.4,52.1
				l0.2-0.2c0,0,0,0,0,0c0.8-0.9,1.7-1.8,2.5-1.8c0.1,0,0.3,0,0.4,0.1c0.7,0.2,0.8,0.6,1,2.6l0,0.4v1.2c-0.4,6.3-2,12.3-4.7,17.6
				c0,0,0,0.1,0,0.1c-0.8,1.7-2.4,3-4.2,3.2c-0.4,0.1-0.7,0.1-0.9,0.1c-0.1,0-0.1,0-0.2,0c-0.1-0.1-0.1-0.4-0.2-0.9
				c-0.8-5.1,0.1-10.5,2.6-16C71.2,55.7,72.3,53.8,73.4,52.1L73.4,52.1z M90.5,82c-0.5,0-1.1-0.3-1.2-1c-0.1-0.7,0.3-1.4,0.9-1.5
				c1.5-0.3,3.2-0.5,4.9-0.7c-1.1,1.5-2.4,2.4-4,3.1c-0.1,0-0.1,0-0.2,0.1c0,0,0,0,0,0c0,0,0,0-0.1,0C90.8,82,90.6,82,90.5,82
				L90.5,82z"/>
		</g>
		<g>
			<path class="st0" d="M23.7,93.4c-0.4,0-0.8-0.1-1.2-0.2c-0.9-0.3-1.9-0.6-2.8-1c-2.4-0.9-3.9-3.3-3.5-5.9
				c0.4-5.9,0.7-11.9,1.1-17.8c0.4-5.9,0.7-11.8,1.1-17.7c-0.4,0.1-0.8,0.2-1.2,0.2L16.8,51c-0.5,0.2-0.9,0.3-1.4,0.3
				c-1.1,0-2-0.7-2.4-1.9c-0.6-1.8-1.3-3.6-1.8-5.6c-0.3-1.1,0-1.8,0.3-2.2c0.3-0.3,0.8-0.8,1.7-0.8c0.2,0,0.5,0,0.7,0.1
				c1.9,0.2,3.9,0.2,5.9,0.2c0.1,0,0.2,0,0.2,0c0,0,0-0.3,0.1-0.5c0-0.2,0.1-0.3,0.1-0.5c0.6-2.3,1.1-4.6,1.7-6.9
				c1.2-4.8,2.4-9.8,3.7-14.7c1.3-3.8,2.5-7.1,3.8-10c0.4-1.4,1.6-2.4,3.1-2.4c0.2,0,0.5,0,0.7,0.1c0.2,0,0.3,0.1,0.4,0.1
				c0,0,0,0,0.1,0c2.2,0.7,4.3,1.6,6.7,2.8c0.6,0.3,1,1.1,1.1,1.5c0.2,0.7,0.2,1.2-0.1,1.6c-2.7,4.1-4.1,8.6-5.6,13.4
				c-0.3,0.9-0.6,1.8-0.9,2.8c-1.3,4.2-2.4,8.6-3.4,12.8c0,0.1,0,0.3-0.1,0.4l8.4-1c2-0.3,3.6-0.5,5.2-0.5c1,0,1.2-0.2,1.4-1.3
				c1.9-9,4.6-17.8,7.8-26.1c0.9-2.3,2-4.4,3-6.5c0.4-0.8,0.8-1.6,1.2-2.4c0.7-1.3,1.6-2,2.9-2C62,1.9,62.4,2,63,2.2l0.5,0.2
				C66,3.1,68.6,4,70.8,6c0.4,0.3,0.4,0.8,0.2,1.3c-4.7,7.7-7.7,16.2-10.2,23.5c-0.3,1-0.6,2-0.9,3.1c-0.3,1.1-0.6,2.1-1,3.1
				c-0.8,2.6-1.1,4.6,0.2,6.9c0.2,0.3,0.9,1.5,0.4,2.6c-0.5,1-1.7,1.2-2.6,1.3c0,0-0.1,0-0.1,0s-0.1,0-0.1,0c-0.4,0-0.8,0.3-0.8,0.7
				l0,0.1c0,0,0,0.1,0,0.1c-0.5,4.2-1.1,8.5-1.6,12.7c-0.6,4.8-1.3,9.6-1.9,14.5c-0.2,1.5-0.3,3.1-0.3,4.6c0,0.5,0,1.1-0.1,1.6
				c-0.2,2.4-1.5,2.7-2.3,2.7c-0.3,0-0.7-0.1-1.1-0.2c-0.7-0.2-1.5-0.5-2.3-0.8c-3.5-1.7-4.4-3-4.2-6.7l0.1-0.7
				c0.6-9,1.2-18,1.9-27.2c-0.6,0.1-1.3,0.1-1.9,0.2c-1,0.1-2.1,0.3-3.1,0.4c-3,0.4-6.1,0.8-9.1,1.4c-0.3,0.1-0.5,0.4-0.6,0.7
				c-0.2,1.5-0.4,3.1-0.6,4.6c-0.6,4.7-1.2,9.5-1.6,14.3c-0.3,4-0.6,8.2-0.8,12.1c-0.2,2.7-0.3,5.4-0.5,8.1
				C25.7,93.1,24.4,93.4,23.7,93.4z"/>
			<path class="st1" d="M61.5,2.9c0.3,0,0.7,0.1,1.1,0.2C65.3,4,68,4.7,70.2,6.7c-4.6,7.5-7.5,15.5-10.3,23.7
				c-0.7,2-1.2,4.2-1.9,6.2c-0.9,2.7-1.2,5,0.3,7.7c1,1.5,0.5,2.2-1.4,2.4c-0.1,0-0.1,0-0.2,0c-0.9,0-1.7,0.7-1.7,1.6
				c0,0.1,0,0.1,0,0.2c-1.1,9-2.4,18.1-3.5,27.2c-0.3,2.1-0.3,4.2-0.4,6.3c-0.1,1.1-0.4,1.8-1.3,1.8c-0.2,0-0.5,0-0.8-0.2
				c-0.8-0.2-1.5-0.5-2.3-0.8c-3-1.4-3.7-2.4-3.5-5.7c0.7-9.6,1.3-19.2,2-29.1c-0.9,0.1-2,0.2-3.1,0.3c-4.1,0.6-8.2,1-12.3,1.8
				c-0.7,0.2-1.1,0.8-1.4,1.3c-0.8,6.4-1.6,12.7-2.2,19.1c-0.6,6.8-0.9,13.5-1.3,20.3c-0.1,1.1-0.4,1.6-1.1,1.6
				c-0.2,0-0.5-0.1-0.9-0.2c-1-0.3-1.9-0.6-2.8-1c-2-0.8-3.2-2.8-2.9-4.8c0.8-12,1.4-23.9,2.2-35.8c0-0.3-0.1-0.7-0.1-1
				c-1,0.1-1.8,0.3-2.8,0.5c-0.4,0.2-0.7,0.3-1,0.3c-0.7,0-1.2-0.4-1.4-1.2c-0.7-1.8-1.3-3.6-1.8-5.5c-0.2-0.9-0.1-1.7,1-1.7
				c0.2,0,0.4,0,0.6,0.1c2,0.2,4.1,0.2,6.1,0.2c1.2,0,1.1-1,1.3-1.7c1.8-7.2,3.4-14.5,5.4-21.6c1.1-3.4,2.4-6.8,3.8-10
				c0.2-1,1.2-1.7,2.2-1.7c0.2,0,0.4,0,0.6,0.1c0.1,0,0.2,0.1,0.3,0.1c2.3,0.8,4.5,1.7,6.6,2.8c0.5,0.2,0.9,1.4,0.7,1.7
				c-3.3,5-4.8,10.7-6.6,16.4c-1.3,4.3-2.4,8.6-3.4,12.8c-0.1,0.6-0.1,1-0.3,1.8l9.7-1.1c1.7-0.3,3.3-0.5,5-0.5
				c1.6,0,2.1-0.7,2.4-2.1c1.9-8.8,4.5-17.5,7.8-26c1.2-3,2.8-5.9,4.2-8.8C60,3.4,60.6,2.9,61.5,2.9 M61.5,0.9
				c-1.2,0-2.8,0.4-3.8,2.5c-0.4,0.8-0.8,1.6-1.2,2.4c-1.1,2.1-2.1,4.3-3.1,6.6c-3.3,8.4-5.9,17.2-7.9,26.3c0,0.2-0.1,0.4-0.1,0.5
				c-0.1,0-0.2,0-0.3,0c-1.6,0-3.3,0.2-5.3,0.5l-7,0.8c0.9-3.9,1.9-7.9,3.2-11.7c0.3-0.9,0.6-1.8,0.9-2.7c1.5-4.7,2.8-9.1,5.5-13.1
				c0.4-0.6,0.5-1.5,0.2-2.5c-0.2-0.6-0.7-1.7-1.7-2.1c-2.4-1.2-4.6-2.1-6.8-2.8c0,0,0,0,0,0c-0.1-0.1-0.3-0.1-0.6-0.2
				c-0.3-0.1-0.6-0.1-0.9-0.1c-1.9,0-3.6,1.2-4.1,3c-1.3,3-2.6,6.3-3.8,10c0,0,0,0.1,0,0.1c-1.4,4.9-2.6,9.9-3.7,14.7
				c-0.6,2.3-1.1,4.6-1.7,6.9c0,0.1,0,0.1,0,0.2c-1.7,0-3.5,0-5.2-0.2c-0.3,0-0.6-0.1-0.8-0.1c-1.4,0-2.2,0.7-2.5,1.2
				c-0.4,0.6-0.8,1.5-0.4,3c0.5,1.9,1.2,3.8,1.8,5.6c0.5,1.6,1.8,2.6,3.3,2.6c0.5,0,1.1-0.1,1.7-0.4l0.1,0c-0.3,5.5-0.7,11-1,16.4
				c-0.3,5.8-0.7,11.9-1.1,17.8c-0.4,3,1.3,5.8,4.2,6.9c0.9,0.4,1.9,0.7,2.9,1c0.5,0.2,1,0.3,1.5,0.3c0.7,0,2.9-0.3,3.1-3.5
				c0.2-2.7,0.4-5.5,0.5-8.1c0.2-4,0.5-8.1,0.8-12.1c0.4-4.7,1-9.6,1.6-14.3c0.2-1.5,0.4-2.9,0.5-4.4c0,0,0,0,0.1-0.1
				c3-0.5,6-0.9,8.9-1.3c1-0.1,2-0.3,3-0.4c0.3,0,0.5,0,0.8-0.1c-0.6,9.1-1.2,17.9-1.8,26.7c-0.2,4.2,0.8,5.9,4.7,7.7
				c0,0,0.1,0,0.1,0.1c0.8,0.3,1.6,0.6,2.4,0.8c0.5,0.2,0.9,0.2,1.4,0.2c1.5,0,3.1-1,3.3-3.6c0-0.6,0-1.1,0.1-1.6
				c0.1-1.6,0.1-3,0.3-4.5c0.6-4.9,1.2-9.8,1.9-14.5c0.6-4.3,1.1-8.5,1.7-12.7c0,0,0,0,0-0.1c0,0,0.1,0,0.1,0
				c0.7-0.1,2.6-0.3,3.4-1.9c0.5-1,0.3-2.2-0.5-3.5c-1.1-1.9-0.9-3.6-0.1-6.1c0.3-1,0.7-2.1,1-3.1c0.3-1,0.6-2.1,0.9-3
				c2.4-7.3,5.4-15.6,10.1-23.3c0.5-0.8,0.3-1.9-0.4-2.5c-2.4-2.2-5.1-3-7.7-3.9l-0.5-0.2C62.6,1,62.1,0.9,61.5,0.9L61.5,0.9z"/>
		</g>
		<g>
			<path class="st0" d="M220,93.3c-0.4,0-0.8-0.1-1.2-0.2c-0.2-0.1-0.5-0.2-0.7-0.2c-0.6-0.2-1.2-0.4-1.9-0.7
				c-1.7-0.8-4-2.4-3.8-6.1c0.3-5.2,0.5-10.5,0.8-15.7c0.3-5.3,0.5-10.5,0.8-15.7c0.1-1.3,0.3-2.7,0.6-3.9c-0.1,0-0.1,0-0.2,0
				c-1.1,0.2-2,0.4-2.7,0.4c-2.2,0-2.7-1.5-3.5-4.1c-0.4-1.1-0.7-2.4-0.9-3.7c0-0.1,0-0.2,0-0.3c0.1-0.9,0.8-1.7,1.7-2
				c0.1,0,0.2-0.1,0.3-0.1c0.5,0,1.1,0,1.6,0c1.3,0,2.7,0.1,4.4,0.2c0.1,0,0.1,0,0.2,0c0.5,0,0.7,0,0.9-0.9c0.3-1.1,0.5-2.2,0.7-3.3
				c1-4.3,2-8.8,3.2-13.3c1.4-5,3.2-9.8,4.9-14.4c0.6-1.6,1.4-3.2,3.3-3.2c0.7,0,1.6,0.2,2.6,0.6c1.8,0.6,3.6,1.5,5.6,2.5
				c0.7,0.3,1,1.1,1.1,1.5c0.2,0.7,0.2,1.2-0.1,1.6c-2.8,4.1-4.2,8.9-5.6,13.6c-0.2,0.8-0.5,1.5-0.7,2.3c-1,3.2-1.9,6.6-2.7,9.9
				c-0.3,1-0.5,2-0.8,3c0,0.2,0,0.4,0,0.5l8.4-1c1.8-0.3,3.5-0.5,5.2-0.5c0.1,0,0.2,0,0.2,0c0.6,0,0.8-0.1,1.2-1.4
				c0.7-2.2,1.3-4.5,2-6.7c1.8-6.1,3.6-12.4,5.6-18.5c1.2-3.4,2.6-6.5,4.2-9.3c0.8-1.5,1.5-2.7,3.1-2.7c0.6,0,1.3,0.2,2.3,0.5
				c2.6,0.8,5.2,1.6,7.2,3.8c0.3,0.3,0.3,0.8,0.1,1.2c-4.3,6.9-6.9,14.4-9.5,21.6c-0.5,1.4-0.9,2.9-1.3,4.3
				c-0.4,1.5-0.9,3.1-1.4,4.6c-0.8,1.9-0.7,3.8,0.3,5.4c0.5,0.9,1.1,2,0.6,3c-0.5,1-1.7,1.3-2.7,1.4c-0.3,0.1-0.6,0.3-0.7,0.6
				c-1,6.1-2.1,12.5-2.8,18.7c-0.4,3-0.6,6.1-0.8,9.1c-0.1,1.6-0.2,3.1-0.3,4.7c-0.1,1.6-1,2.3-2.6,2.3c-0.1,0-0.2,0-0.3,0
				c-3.7,0-6.8-3-6.9-6.6l0-0.9c0.6-8.8,1.3-17.5,1.9-26.5l-4.4,0.6c-3.2,0.5-6.5,1-9.7,1.3c-0.7,0.1-0.7,0.2-0.7,0.5
				c-0.7,6.3-1.5,12.7-2.1,19.1c-0.3,4-0.6,8.1-0.8,12.1c-0.2,2.7-0.3,5.4-0.5,8.1C222.1,93,220.7,93.3,220,93.3z"/>
			<path class="st1" d="M257.7,2.8c0.5,0,1.1,0.2,2,0.4c2.5,0.8,4.9,1.5,6.8,3.5c-4.3,6.8-6.9,14.3-9.6,21.8c-1,2.9-1.7,6-2.8,8.8
				c-0.9,2.1-0.8,4.4,0.4,6.3c1.1,1.9,0.8,2.7-1.5,2.9c-0.7,0.2-1.2,0.7-1.4,1.3c-1,6.3-2.1,12.6-2.9,18.8
				c-0.6,4.6-0.8,9.2-1.1,13.8c-0.1,1-0.6,1.4-1.6,1.4c-0.1,0-0.2,0-0.3,0c-3.2,0-5.8-2.5-5.9-5.6c0-0.3,0-0.6,0-0.9
				c0.7-9.1,1.3-18.3,2-27.7l-5.6,0.8c-3.2,0.5-6.5,1-9.7,1.3c-1,0.1-1.5,0.5-1.6,1.4c-0.8,6.4-1.5,12.7-2.1,19.1
				c-0.6,6.8-0.9,13.5-1.3,20.3c-0.1,1.1-0.5,1.6-1.2,1.6c-0.3,0-0.5-0.1-0.9-0.2c-0.9-0.3-1.7-0.5-2.5-0.9c-2.2-1-3.4-2.5-3.2-5.1
				c0.6-10.5,1-21,1.6-31.5c0.1-1.2,0.3-2.6,0.6-3.8c0.2-0.8-0.1-1.2-0.7-1.2c-0.1,0-0.3,0-0.4,0c-0.1,0-0.1,0-0.2,0.1
				c-1.1,0.2-1.9,0.3-2.5,0.3c-1.4,0-1.7-0.8-2.6-3.4c-0.4-1.1-0.7-2.4-0.9-3.5c0.1-0.6,0.6-1,1-1.2c0.5,0,1,0,1.5,0
				c1.4,0,2.8,0.1,4.3,0.2c0.1,0,0.2,0,0.3,0c1.1,0,1.6-0.5,1.9-1.7c1.2-5.5,2.4-11,3.9-16.5c1.3-4.8,3-9.5,4.8-14.3
				c0.7-1.8,1.3-2.5,2.4-2.5c0.6,0,1.3,0.2,2.3,0.5c1.9,0.7,3.7,1.5,5.4,2.5c0.5,0.2,0.9,1.4,0.7,1.7c-3.3,4.9-4.8,10.6-6.5,16.2
				c-1.3,4.3-2.4,8.7-3.5,13c0,0.7-0.1,1.2-0.2,1.8l9.7-1.1c1.6-0.3,3.3-0.5,5-0.5c0.1,0,0.2,0,0.2,0c1.4,0,1.8-0.8,2.1-2.1
				c2.5-8.4,4.8-16.8,7.5-25.1c1.1-3.1,2.5-6.2,4.1-9.1C256.3,3.4,256.8,2.8,257.7,2.8 M257.7,0.8c-2.3,0-3.3,1.9-4,3.2
				c-1.6,2.9-2.9,5.9-4.2,9.4c0,0,0,0,0,0.1c-2,6.1-3.8,12.4-5.6,18.5c-0.6,2.2-1.3,4.4-2,6.7c-0.1,0.3-0.2,0.5-0.2,0.7c0,0,0,0,0,0
				c0,0-0.1,0-0.1,0c0,0-0.1,0-0.1,0c-1.7,0-3.4,0.2-5.3,0.5l-7,0.8c0.2-0.7,0.4-1.4,0.5-2.1c0.8-3.3,1.7-6.6,2.7-9.8
				c0.2-0.8,0.5-1.5,0.7-2.3c1.4-4.8,2.8-9.3,5.5-13.3c0.4-0.7,0.5-1.5,0.2-2.5c-0.2-0.6-0.6-1.6-1.6-2.1c-2-1.1-3.8-1.9-5.7-2.6
				c-1.1-0.4-2.1-0.6-3-0.6c-2.8,0-3.7,2.5-4.2,3.8c-1.7,4.5-3.5,9.4-4.9,14.4c-1.2,4.5-2.2,9-3.2,13.3c-0.2,1.1-0.5,2.2-0.7,3.3
				c0,0.1,0,0.1,0,0.2c0,0,0,0-0.1,0c-1.6-0.2-3.1-0.2-4.4-0.2c-0.6,0-1.1,0-1.6,0c-0.2,0-0.4,0.1-0.6,0.1c-1.2,0.5-2.1,1.6-2.3,2.8
				c0,0.2,0,0.4,0,0.7c0.2,1.3,0.5,2.7,0.9,3.8c0.9,2.7,1.6,4.7,4.5,4.7c0.5,0,1-0.1,1.5-0.1c-0.1,0.8-0.2,1.7-0.3,2.5
				c-0.3,5.3-0.6,10.6-0.8,15.8c-0.3,5.2-0.5,10.5-0.8,15.7c-0.2,3.2,1.2,5.5,4.4,7c0.7,0.3,1.3,0.5,2,0.7c0.2,0.1,0.5,0.1,0.7,0.2
				c0.5,0.2,1,0.3,1.5,0.3c1.4,0,3-0.9,3.2-3.5c0.2-2.7,0.4-5.5,0.5-8.1c0.2-4,0.5-8.1,0.8-12.1c0.6-6.2,1.3-12.6,2-18.7
				c3.2-0.4,6.5-0.9,9.7-1.3l3.1-0.4c-0.6,8.5-1.2,16.9-1.8,25.2c0,0,0,0.1,0,0.1v0.9c0,0,0,0,0,0.1c0.1,4.2,3.7,7.6,7.9,7.6
				c0.1,0,0.3,0,0.4,0c2.1,0,3.4-1.2,3.5-3.2c0.1-1.6,0.2-3.2,0.3-4.7c0.2-3,0.4-6.1,0.8-9c0.7-6.1,1.8-12.4,2.8-18.5
				c1.3-0.2,2.7-0.6,3.4-2c0.8-1.6-0.2-3.3-0.6-4c-0.8-1.3-0.9-2.9-0.2-4.5c0,0,0,0,0-0.1c0.6-1.5,1-3.1,1.5-4.7
				c0.4-1.4,0.8-2.8,1.3-4.2c2.5-7.2,5.2-14.6,9.4-21.4c0.5-0.8,0.4-1.7-0.2-2.4c-2.2-2.4-5.1-3.3-7.6-4.1
				C259.2,1,258.4,0.8,257.7,0.8L257.7,0.8z"/>
		</g>
		<g>
			<path class="st0" d="M98.1,33.7c-3,0-6.1-0.3-9-0.5c-1.8-0.2-3.6-0.3-5.4-0.4c-2.2-0.1-4.1-1.4-4.9-3.2c-1.1-2-2.2-4.5-1.3-7.5
				c0.1-0.3,0.3-0.5,0.6-0.7c0.1,0,0.2-0.1,0.4-0.1c0.2,0,0.4,0.1,0.5,0.1c10,6.2,20.9,6.7,31.2,6.7c3.2,0,6.4-0.4,9.5-0.7
				c1.8-0.2,3.6-0.4,5.4-0.5c0.4,0,0.6-0.1,0.9-1c0.9-3,1.9-5.8,3-8.4c0.6-1.4,1.4-2.6,3.1-2.6c0.6,0,1.2,0.1,2.1,0.4
				c1.9,0.7,3.6,1.5,5.2,2.3c0.8,0.3,1.3,0.9,1.5,1.5c0.3,1-0.1,2-0.5,2.6c-0.7,1.2-1.3,2.4-1.8,3.7c1-0.2,1.9-0.4,2.9-0.6
				c1.4-0.3,2.7-0.5,4.1-0.8c0.9-0.2,1.9-0.3,2.8-0.5c4-0.7,8.2-1.4,12.3-1.8c0.2,0,0.4,0,0.7,0c1.9,0,3.6,0.8,4.6,2.3
				c1.2,1.7,1.5,3.9,0.7,6.2c-0.1,0.4-0.5,0.7-0.9,0.7c-0.1,0-0.1,0-0.2,0c-2.6-0.5-5-0.9-7.2-1c-1,0-2.1,0-3.2,0
				c-3.7,0-7.2,0.1-10.5,0.4c-3,0.2-6.1,0.6-9.1,0.9c-3.9,0.4-7.8,0.8-11.8,1.1c-7.7,0.5-16.3,1.1-24.7,1.3
				C98.7,33.7,98.4,33.7,98.1,33.7z"/>
			<path class="st1" d="M132.1,15.9c0.5,0,1,0.1,1.7,0.4c1.7,0.7,3.4,1.4,5,2.3c1.2,0.6,1.3,1.4,0.6,2.8c-0.9,1.5-1.6,3.1-2.3,4.8
				l0.4,0.6c2.7-0.5,5.4-1,8.1-1.5c5-0.9,10-1.8,15-2.3c0.2,0,0.4,0,0.6,0c3.6,0,5.6,3.5,4.4,7.2c-2.4-0.5-4.8-0.9-7.3-1
				c-1.1,0-2.2,0-3.2,0c-3.5,0-7.1,0.1-10.5,0.4c-6.9,0.6-13.9,1.5-20.9,2c-8.2,0.6-16.4,1.1-24.6,1.3c-0.3,0-0.6,0-0.9,0
				c-4.8,0-9.6-0.7-14.3-1c-1.7-0.1-3.3-1-4.1-2.7c-1-2-2-4.2-1.2-6.8c10,6.2,20.8,6.8,31.8,6.8c5,0,10-0.9,15-1.2
				c1-0.1,1.4-0.6,1.8-1.6c0.9-2.9,1.8-5.6,2.9-8.4C130.6,16.4,131.2,15.9,132.1,15.9 M132.1,13.9c-2.5,0-3.6,2.2-4,3.2
				c0,0,0,0,0,0.1c-1.1,2.6-2.1,5.4-3,8.5c0,0.1-0.1,0.2-0.1,0.3c-1.8,0.1-3.6,0.3-5.4,0.5c-3.2,0.4-6.3,0.7-9.4,0.7
				c-10.2,0-20.9-0.5-30.7-6.5c-0.3-0.2-0.7-0.3-1.1-0.3c-0.2,0-0.5,0-0.7,0.1c-0.6,0.2-1,0.7-1.2,1.3c-1,3.6,0.5,6.7,1.4,8.3
				c1,2.2,3.3,3.6,5.8,3.8c1.8,0.1,3.6,0.3,5.3,0.4c3,0.3,6.1,0.5,9.1,0.5c0.3,0,0.6,0,0.9,0c8.4-0.2,17.1-0.8,24.7-1.3
				c4-0.3,8-0.7,11.8-1.1c3-0.3,6.1-0.6,9.1-0.9c3.2-0.3,6.7-0.4,10.4-0.4c1,0,2.1,0,3.1,0c2.2,0.2,4.5,0.5,7,1c0.1,0,0.3,0,0.4,0
				c0.8,0,1.6-0.5,1.9-1.4c0.9-2.6,0.6-5.1-0.8-7.1c-1.2-1.7-3.2-2.7-5.4-2.7c-0.2,0-0.5,0-0.8,0c-4.2,0.4-8.4,1.1-12.4,1.8
				c-0.9,0.2-1.9,0.3-2.8,0.5c-1.4,0.2-2.7,0.5-4.1,0.8c-0.3,0.1-0.7,0.1-1,0.2c0.3-0.7,0.6-1.3,1-1.9c0.3-0.5,1.1-1.9,0.6-3.4
				c-0.3-0.9-1-1.6-2-2.1c-1.6-0.8-3.3-1.6-5.2-2.4c0,0,0,0-0.1,0C133.5,14,132.8,13.9,132.1,13.9L132.1,13.9z"/>
		</g>
		<g>
			<path class="st0" d="M360.7,100.5c-0.2,0-0.4-0.1-0.5-0.2c-0.2-0.2-0.5-0.3-0.7-0.4c-0.5-0.3-1.1-0.6-1.6-1
				c-2.2-1.7-4.9-2.2-7.3-2.6l-16.8-2.3c-0.5-0.1-0.9-0.6-0.9-1.1c0.2-1.4,0.4-2.8,0.7-4.2l0.1-0.6c0.3-1,1.6-1.6,2.4-1.6
				c0.1,0,0.2,0,0.3,0c3.8,0.3,7.5,0.7,11.5,1.2l0.6,0.1c2.7,0.3,5.4,0.8,8,1.2c4,0.6,5.9,2.8,6.1,6.9l0,0.7c0,0.1,0,0.2,0,0.3
				l-0.9,2.9c-0.1,0.3-0.3,0.5-0.6,0.6C361,100.5,360.9,100.5,360.7,100.5z"/>
			<path class="st1" d="M336,87.5c0.1,0,0.1,0,0.2,0c4.1,0.3,8.1,0.8,12.2,1.2c2.7,0.3,5.3,0.8,7.9,1.2c3.5,0.6,5.1,2.4,5.3,6
				c0,0.2,0,0.5,0,0.7c-0.3,1-0.6,1.9-0.9,2.9c-0.8-0.5-1.5-0.9-2.3-1.4c-2.3-1.8-5-2.4-7.8-2.8l-16.8-2.3c0.2-1.6,0.5-3.1,0.8-4.8
				C334.7,88,335.5,87.5,336,87.5 M336,85.5C336,85.5,336,85.5,336,85.5c-1.1,0-3,0.7-3.4,2.3c0,0,0,0.1,0,0.1l-0.1,0.6
				c-0.3,1.4-0.5,2.8-0.7,4.2c-0.1,1.1,0.6,2.1,1.7,2.2l16.8,2.3c2.8,0.4,5,0.9,6.8,2.3c0,0,0,0,0,0c0.6,0.4,1.2,0.8,1.7,1.1
				c0.2,0.1,0.5,0.3,0.7,0.4c0.3,0.2,0.7,0.3,1.1,0.3c0.2,0,0.5,0,0.7-0.1c0.6-0.2,1-0.7,1.2-1.3l0.5-1.5l0.4-1.3
				c0.1-0.2,0.1-0.4,0.1-0.6V96c0,0,0-0.1,0-0.1c-0.2-4.6-2.5-7.1-7-7.9c-2.5-0.5-5.3-1-8-1.3l-0.6-0.1c-3.9-0.5-7.7-0.9-11.6-1.2
				C336.3,85.5,336.2,85.5,336,85.5L336,85.5z"/>
		</g>
	</g>
</g>
</svg>
