<?xml version="1.0" encoding="utf-8"?>
<!-- Generator: Adobe Illustrator 23.0.2, SVG Export Plug-In . SVG Version: 6.00 Build 0)  -->
<svg version="1.1" id="Layer_1" xmlns="http://www.w3.org/2000/svg" xmlns:xlink="http://www.w3.org/1999/xlink" x="0px" y="0px"
	 viewBox="0 0 818.1 500" style="enable-background:new 0 0 818.1 500;" xml:space="preserve">
<style type="text/css">
	.st0{fill:#665E5E;}
	.st1{fill:#383838;}
	.st2{fill:none;stroke:#F49314;stroke-width:5;}
	.st3{fill:none;}
</style>
<title>Asset 1</title>
<g>
	<g id="Layer_1-2">
		<path class="st0" d="M700,265.4v0.4h1.8L700,265.4 M712.5,269.6l1.4,2.7h0.7C715,270.4,714.2,269.7,712.5,269.6 M708.9,271.5
			c2.6,2,9.2,7.9,5.7,11c0.9,2.1,2.8,5,5,5.7l3.9-3.8l-3.9,5.7c3.5,2.6,6.1,6.4,8.6,10c0.3,0.4,2.3,4,2.9,2.1
			c0.4-1.3-2.9-5.8-3.3-7.5c2.2,2.2,2.2,5.9,5.7,6.5l-1.8-3l0.7-0.8l1.8,0.8l-0.3-1.5l1.1,1.1h1.4v0.8c-1.2,0.1-1.7,0.3-2.1,1.5
			l1.8,0.4v0.4l-1.8,2.3l1.4,3.4c-1.3-1.6-2.2-2.9-4.3-3c0.5,1.9,2,3.3,3,4.9c1.8,2.8,2.9,10,7,9.5l-1.4,1.5c0.8,2.8,1,6.3,4.3,5.7
			c-0.8,0.6-2.6,0.9-3.2,1.8c-1,1.4,0.3,2.2,1.4,2l0.4,2.3l-2.8,0.4c-0.3,3.6-0.9,10.2-3.9,12.3c-2.8,2-11.1,1.5-10.9,6.7
			c0.1,4,4.9,4,7.4,4.9c1.8,0.7,2.9,2.5,4.6,3.5c1.9,1,4.2,0.7,6,1.8c5.4,3,5.4,9,2.1,13.8c-2,2.8-4.6,4.7-6.6,7.4
			c-1.7,2.3,2.2,2.5,3.4,2.5c0.5,2.8,2.2,0.5,3.9,1.1c1.3,0.4,1.3,2.3,1.5,3.5c8.3-0.1,13.6-8.6,18-14.7c2.3-3.2,5.3-5.8,7.6-8.9
			c1.2-1.6,1.2-3.5,2.1-5.2c0.8-1.5,2.1-2.4,2.9-3.8l-3.6-0.4c-0.5-8.1,7.5-9.9,13.5-8.3l0.4,3l2.8-3.4c-1.8-1.7-0.7-3.8-0.7-6.1
			l5.7-3c-0.6-4.9,0.8-9.9,3.9-13.7V324c-4-3.1-9.7-3.8-13.7-0.2c-1.7,1.5-2.2,3.5-4.4,4.3c-5.6,2.1-11.2-2.5-16.3-4.2
			c-2.5-0.8-4.1,0.1-6-2.3l3.5,1.5c-0.8-1.9-2.6-3-3.4-4.9c-1.2-2.9,0-7.2-2.7-9.1l-1.4,1.1v-0.4l2.1-1.1c-0.8-1.5-2-1.5-3.5-1.5
			c-0.4-2.9-2.2-3.4-4.6-3.4c0.3,1.6,1.5,2,1.9,3.5c0.4,1.2-0.5,2.4-0.1,3.7s1.9,2.3,1.4,3.8c-0.2,0.7-0.8,1.1-1.5,0.9
			c-0.2,0-0.4-0.1-0.5-0.3c-1-0.9-0.4-2.6-1.5-3.4c-1-0.7-2.2-0.4-3.3-0.9c-3.3-1.4-7.8-5.6-3.9-9.2c-0.8-2.1-2.4-5.3-4.6-5.7
			c0-2-0.1-3.3-2.1-3.4v-0.4l2.1-0.4l-0.7-1.5l1.8-0.4c-0.9-3.6-3.7-7.2-7.1-5.7l-1.5-1.5v-0.4h1.4c-0.9-3-6.3-3.9-8.9-4.6v1.1h-2.1
			l1.4-1.1c-0.9-3.2-2.7,0.1-3.5,1.5C717.7,277.1,710.4,267.5,708.9,271.5 M737.7,292.1v1.5h1.8L737.7,292.1 M752.9,302.4
			c0.2-1.4-0.3-6.5-2.8-5.3C747.3,298.6,751.7,301.9,752.9,302.4 M745.1,299c0.7,1.3,1.3,1.3,2.5,0.8L745.1,299 M743.7,303.6
			L743,302C741.5,303,742.2,303.9,743.7,303.6 M755.8,305.4c0.6,1.1,1,1.3,2.1,1.1l-0.7-1.5L755.8,305.4 M744.4,308.4l2.5,2.3
			l1.1-2.7L744.4,308.4 M766.4,322.1l-0.3,0.4v0.8l0.3,0.4h0.7l0.4-0.4v-0.7l-0.4-0.4L766.4,322.1 M774.2,326.7l1.8,0.4L774.2,326.7
			 M706.8,370.4l0.3,1.5c-2.4-0.4-7.1,2.8-7.7,5.3c-0.5,2.1,0.6,4.4,0,6.5s-3.3,4.9-5.1,6c-1.5,1-3.3,0.6-4.5,2
			c-2,2.2-1.9,5.3-3,7.9c-1.6,3.7-4,6.9-7.1,9.4c-2.1,1.8-5.1,2.1-7.5,3.6c-3.5,2.3-6.7,6.2-10.3,8.1c-2.2,1.2-4.8,1.5-7.1,2.7
			s-4.1,3.3-6.4,4.1c-1.8,0.6-3.9-0.3-5.7,0.4s-2.8,3-4.6,4l0.4,1.1c-3.1,0.2-4.4,2.9-6.8,4.7c-1.6,1.2-3.5,1.8-3.9,4
			c-4.2,0.3-8.9,6.7-2.5,7.6v0.4H623l0.7,1.5l-5.7-1.9l-1.8,4.9l4.6-0.8v0.4c-1.4,0.6-4,2.1-1.1,2.7v0.4l-7.1,0.8l0.4,3.8l2.5-0.8
			l-0.7,1.9h2.2c-2.5,4,5.3,2.5,7.5,3s3.6-1.8,5.7-1.4s2.2,2.8,3.9,3.5c1.3,0.5,2.8-0.5,4.2-0.5s2.8,0.8,4.3,1.1v0.8l-2.1,0.8v0.8
			c3.2,1.1,6,0.5,9.2,0c0.6,3.1,4.6,1.8,6.7,1.4c5.7-1,10.9-3.8,14.8-8c0.9-0.9,1.2-2.2,2.3-3c2.3-1.7,6.5,0.1,6.7-3.7l-2.5,0.8
			c2-4.8,4.6-10.5,8.5-13.7c0.1-3.5,0.1-8,2.1-10.9c1.3-1.9,3.8-2.6,5.7-3.4c3.6-1.5,6.8-3.8,10.7-4.3c0.3-4.6,6,0.6,8.2,0.8v-2.3
			h0.3l0.7,2.3h0.4c4.4-3.9-1.3-5.1-4.3-5.7c0.1-1.3-0.3-2.6,0-3.8c1.1-4.6,5.7-3.5,8.3-6.3c1.8-1.9,2.5-5,4.2-7
			c3.8-4.6,8.6-8,11.7-13.3l-2.2-1.1l-1.4-4.2l5.3-5l-0.3-0.4l-8.9,3.1v-1.5l-3.9-2.3c-1.7,0.7-5.3,4.3-7,3.7
			c-1.9-0.7-1-6.1-1.1-7.9c-1.3-0.4-2.7,0.5-3.9-0.1c-1.4-0.6-2.3-2.8-0.7-3.7c1-0.6,2.7,0,3.8,0v-0.8H706.8 M725.3,377.3
			c2,0,3.6-1.5,3.9-3.4C726.7,374,725.8,374.7,725.3,377.3 M723.9,378.5v0.8c1.5,0.6,2.6,0.7,3.5-0.8l-1.8-0.8L723.9,378.5
			 M726.7,380.8c2.3,3.4,6.2-0.2,8.2-1.9C732.5,377.1,728.7,379.2,726.7,380.8 M619.4,446.9l-0.3,1.9l2.1,0.8l-0.4-2.7L619.4,446.9
			 M613.4,457.1h4.3C617.4,454.1,613.6,454.1,613.4,457.1L613.4,457.1z"/>
		<g id="Layer_1-2-2-2">
			<path class="st1" d="M13.2,214.3c2,3.2,4,6.4,6,9.6c0.6,0.9,0.9,2.8,2.4,1.6c0.6-0.5,0.6-2.5,0.2-3.6c-0.7-1.7-2.1-3.1-3-4.8
				c-0.4-1-0.8-2-1-3l0.9-0.5c2.1,3.2,4.2,6.4,6.2,9.7c2.3-2,2.9-5.3,1.4-8c-2.2-4.2-4.1-8.5-6.6-12.4c-3.1-4.8-2.8-9.3-0.3-14
				c2.1-3.5,2.8-7.7,1.9-11.7c-1.1-4.8,1.3-8.4,3.3-12.2l0.8-0.1c0.2,0.7,0.3,1.5,0.3,2.2c0,1.3-0.3,2.6-0.2,3.8
				c0,0.6,0.7,1.5,1.1,1.5c0.7-0.2,1.3-0.5,1.8-1.1c0.3-0.3,0.5-0.7,0.5-1.2c0.2-4.3,3.5-5.6,6.6-7c6.9-3.1,12.6-8,18-13.1
				c2.4-2.3,3.7-2.6,6.5-0.4c2.1,1.6,7.3,1.6,9.9-0.9s5.5-2.8,8.7-3.3c1.2-0.1,2.2-0.7,3-1.6c1.1-1.7,2.6-1.9,4.4-2
				c7.4-0.4,14.6-1.4,20.9-5.7c3.2-2.1,5.5-5.3,6.7-8.9c0.8-2.4,1.9-4.3,4.5-5.2c1.2-0.6,2.2-1.4,3.1-2.3c1.3-1.2,1.5-2.4,0.4-4
				c-2.1-3.1-2.1-7.3,0.1-10.3c1.9-2.6,4-5.1,6.3-7.3c1.2-1.3,2.1-0.5,2.1,1c-0.1,3.7,2.8,5.9,4.1,9c0.5,1.1,1.6,1.3,2.2-0.3
				c0.1-0.5,0.4-0.9,0.7-1.3c2.2-2.4,2.3-3.2-0.4-5.2c-1.4-1-2.3-1.8-0.8-3.4c0.2-0.3-0.4-1.4-0.7-2.1c-0.3-0.5-0.6-1.1-1-1.6
				c0.7-0.3,1.4-0.6,2.2-0.6c1.3,0.2,2.7,0.5,3.9,1c1,0.5,1.9,1,2.7,1.6c0.8,0.4,1.6,0.8,2.3,1.3c0.5-0.7,0.8-1.6,1.1-2.4
				c0.1-1.7-0.2-3.4-0.2-5.2s0-3.3,0-4.2c3-2.2,5.7-3.9,8.1-6c0.6-0.5,0.5-2,0.5-3.1c-0.1-1.2-0.3-2.3-0.5-3.5
				c3.8,2.7,5.7,1.1,6.6-2.6c0.3,0.4,0.6,0.8,0.9,1.2c0.6,0.7,1.2,1.3,1.8,2c0.7-0.9,1.3-1.8,1.7-2.8c0.2-0.9,0.2-1.8,0.1-2.7
				L166,68l1.6,2.3c1.3,0.1,2.6,0.1,3.8-0.1c0.6-0.1,1.2-0.9,1.5-1.5c1.8-3.8,1.6-3.2,5.2-1.7c4.1,1.8,6.6,5,9.3,8.1
				c0.8,0.9,1.1,2.3,1.6,3.5c0.3,0.6,0.5,1.6,1,1.8s1.4-0.3,2-0.6c0.9-0.4,1.7-1.2,2.6-1.3c3.4-0.4,4.1,0.3,4.1,3.7v198.5
				c0,3.9-0.1,7.8,0,11.6c0,1.7-0.5,2.5-2.1,3.5c-5.7,3.4-11.9,5-18.3,6.1c-3.3,0.5-6.7,0.6-10,0.3c-3-0.2-5.2,1-7.7,2.4
				c-4.3,2.6-8.8,4.8-13.5,6.7c-3.2,1.1-4.6,3-5.7,5.9c-0.9,2.3-2.2,4.4-4,6.1c-1.6,1.3-3.7,2.1-5.8,2.1c-5.7,0-11.3-0.9-17-0.7
				c-7.1,0.3-14.3-0.8-21.2,1.4c-1.8,0.8-3.3,2.1-4.2,3.9c-1,1.8-2.1,2.8-4.1,2.9c-3.6,0.1-6.9,2-8.7,5c-2,2.9-6.8,4.5-10.4,3.9
				c-2.7-0.5-5.5-0.6-8.2-0.5c-4.6,0.2-8.1-2.1-11.1-5c-2.6-2.5-5.1-4.8-8.9-5c-2.2,0-1.7-2.3-1.8-3.4c0-2.3,0.2-4.6,0.7-6.9
				c0.3-0.1,0.7-0.1,1-0.1c3.5,0,5.7-1.9,5.9-5.3c0.1-1.9-0.2-3.8-0.2-5.6c0-1.3,0.1-2.7,0.4-4c1.2-4.6,1-9.5-0.8-13.9
				c-1.1-3.1-2.8-6.1-4-9.1c-2.4-5.7-3-11.9-3.7-18c-0.2-2.2-0.7-4.4-1.6-6.4c-2.1-4.2-4.6-8.1-6.9-12.3c-0.7-1.3-1.2-2.8-1.3-4.3
				c0-5.5-2.6-9.8-5.8-13.9c-2.7-3.5-5.7-7-7.1-11.4c-0.2-0.7-0.3-1.3-0.4-2L13.2,214.3z"/>
			<path class="st0" d="M444.2,172.4c0-0.3,0.1-0.7,0.1-1c0.2-0.8,0.4-1.6,0.6-2.4c0.8,0.4,1.5,0.9,2.2,1.5c0.9,0.9,1.6,1.9,2.8,3.3
				l1.5-2.4c2.9,0.6,3.3,2.4,3.3,4.7c-0.1,2.5,0.1,4.9,0.5,7.4c0.3,1.1,1.2,1.9,2.2,2.3c1.7,0.2,3,1.7,3,3.4
				c0.2,2.3,1.2,3.3,3.5,3.6s3.5,1.9,4.5,4c1.4,2.8,3.7,5.1,5.6,7.6c0.4,0.5,0.7,1,0.9,1.5c0.8,2.1,2.4,2.8,4.3,2
				c1.7-0.7,3.6-1.6,2.6-4.2c-0.3-0.7,0.5-1.7,1.3-2.5c0.5,2.8,1.6,5.8-0.2,8.1c-3.4,4.3-2.3,9-2,13.6c0.2,3.8,0.9,7.6,1.2,11.4
				c0.2,2.6,0.4,2.8,4.4,2.7c-0.3,3-0.7,5.9-1,9.1c-1.4,0.6-2.8,1.1-4.2,1.5c-1.1,0.3-2.3,0.2-3.4-0.2c-1.4-0.8-3.1-0.6-4.2,0.5
				c-1.7,1.2-3.4,2.2-5.3,3.1c0.4,1.6,0.7,2.7,0.9,3.6l-6.8,2c-2-2.2-4.3-4.8-8.4-4.9c-1.2-0.2-2.3-0.4-3.4-0.8
				c-0.9-0.2-1.8-0.3-2.8-0.3c-1.5,0-3,0.6-4.3,0.3c-3.4-0.6-5.7,1.3-7.7,3.3c-1.7,1.7-4,2.6-6.4,2.4h-84.2c-3.7,0-3.8,0-3.8-3.6
				c0-11.1,0-22.2,0.1-33.3c0-2.1-0.5-2.9-2.8-2.9c-9.8,0.1-19.6,0-29.5,0h-3.2V100.4c3.9,2.3,8.6,1.5,11.3,5.2
				c2.7,3.9,6.7,6,11,7.5s9.7-1.7,10.4-6.3c0.2-0.8,0.6-1.6,1.1-2.3c2.7-3.7,4.3-8,4.8-12.6c0.2-2.2,0.9-4.4,1.3-6.6
				c0.3-1.1,0.5-2.3,0.6-3.5c0.1-2.8,0.1-5.7,0-8.5c-0.1-1.8-0.9-3.6-0.8-5.4c0.2-2.4,0.5-4.7,1.1-7c0.5-2.5,1.3-4.9,1.8-7.4
				c0.2-0.6,0.2-1.2,0-1.8c-1.5-2.7,0.2-4.6,1-6.9c1.8-5,3.3-10,4.5-15.1c0.6-2.6,1.7-1.8,3-0.9c3.6,2.5,4.2,6.2,4.4,10.1
				c0,0.3-0.1,0.8,0,1.1c2.5,2.6,2.8,6.3,4.3,9.3c2.1,4.2,3.4,8.7,3.9,13.3c0.4,3.2,1.1,6.3,2.1,9.4c1,2.9,3,3,5,0.6
				c0.4-0.5,0.9-1.1,1.3-1.6c1.4-1.5,2.5-0.8,3.6,0.5c1.9,2.3,4.1,4.5,6,6.9c1,1,1.7,2.3,2.1,3.6c0.4,2.6,0.1,5.3,0.6,7.9
				c0.9,4.8,1.3,9.7,5.6,13.3c1.6,1.3,2,4.2,2.6,6.5c0.4,2.2,0.6,4.4,0.6,6.6c0,0.4-0.1,1,0.1,1.3c2.6,3.1,2.2,7.1,3.1,10.7
				c0.5,2,1.6,3.2,4,3.2c1.2,0,2.5,0.9,3.6,1.5c0.9,0.4,1.8,0.9,2.6,1.4s2.2,0.8,2.9,1.6c3.1,4,7.7,5.6,12,7.6
				c2.5,1.1,3.5,2.5,3.9,5.3c0.7,3.2,1.9,6.3,3.7,9.1c1.9,3.3,4.2,6.3,4.5,10.5C439.8,170.7,441.8,172.5,444.2,172.4
				C444.2,172.5,444.2,172.5,444.2,172.4L444.2,172.4L444.2,172.4z"/>
			<path class="st1" d="M304.3,216.9H200.7V80c1.8-0.5,3.3-1,4.8-1.5s1.9-1.5,0.9-2.9c-2.6-3.6-2.6-3.6,0.5-6.7
				c0.5-0.6,1-1.3,1.3-2.1c0.8-2.1,1.6-4.1,4.1-4.8c1.3-0.4,1.7-1.5,0.9-2.9c-0.3-0.7-0.3-1.6,0.1-2.3c2.3-2.6,4.7-5.2,7.2-7.6
				c1.7-1.8,4.4-2.3,6.7-1.3c3,1.2,5.9,0.3,8.8-0.5c1.5-0.3,3.1-0.8,4.5-1.5c0.9-0.6,1.4-1.6,1.5-2.7c-0.3-2.1-2-3.7-4.1-4
				c-1.5-0.3-3-1-4.1-2c-1.3-1.2-0.6-2.3,1.2-2.6c0.9,0,1.9,0,2.8-0.2c2.2-0.8,4.1-1.5,4.5,2c0.1,0.5,1.4,1.3,2,1.2
				c1.9-0.4,2.6,0.9,3.6,2s2.7,2.2,3.9,2.1c3.5-0.4,6.2,1.4,9.2,2.4c1.4,0.4,2.8,0.7,4.2,0.8c1.7,0.2,3.5-0.5,4.7,1.6
				c0.3,0.5,2.3,0.1,3.5-0.1c1-0.1,2.1-0.8,2.8-0.5c3.3,1.4,6.1,0.3,9.1-0.8c1.1-0.4,2.5-1.3,3,0.8c0.1,0.3,1.1,0.4,1.7,0.5
				c2.5,0.5,3.3,2.2,1.5,4c-1.5,1.5-2.5,3.4-2.8,5.5c-0.4,2.4-1.9,3.5-4.4,3.4c-0.5-0.1-1-0.1-1.5,0c-3,0.4-4.2,2.2-2.6,4.6
				c2,3,0.4,5-1,7.2c-1.1,1.7-2.4,3.4-3.7,4.9c-1.4,1.7-1.2,3.1,0.5,4.4s3.5,2.2,5.1,3.4c1.3,0.9,2.5,2,3.6,3.2
				c0.9,1.1,1.6,1.2,2.7,0.4c2-1.3,5.9-0.3,6.6,1.9c0.8,2.7,2.7,4,4.9,5.3l0.5,0.3c3.9,1.9,5,4.8,5,9.3c-0.2,36.3-0.1,72.7,0,109
				L304.3,216.9z"/>
			<path class="st0" d="M339.3,219.1v165.8c-2.1,0.6-4.3-0.2-5.6-1.9c-2.4-2.8-4.9-5.6-7-8.5c-1.3-1.9-1.7-4.4-0.8-6.6
				c0.4-1.3,0.4-2.8,0.1-4.1c-1-4.3-2.6-8.4-6.1-11.4c-2.5-2.2-4.9-4.9-8.9-2.9c-0.8,0.4-1.9,0-3.4,0c0.5-1.3,0.6-2.3,1.2-2.9
				c3.9-3.9,2.2-8.1,0.6-12.1c-0.6-1.6-2.2-2.8-3.3-4.2c-0.8,1.6-1.6,3.2-2.4,4.8c0,0.1-0.1,0.2-0.1,0.2c0.4,7.1-4.7,8.3-10,9.3
				c-2,0.4-2.2-1.3-1.6-2.2c0.9-1.5,2.3-2.6,3.9-3.2c1.8-0.4,2.5-1.2,2.6-2.9c0.4-5.4,1.9-10.6,4.3-15.4c1.5-3,3.2-6.9,2.1-10.7
				c-0.2-0.8-1.1-1.5-1.6-2.2c-0.7,0.6-1.3,1.3-1.8,2c-1.9,3.6-3.6,7.4-5.8,10.8c-0.9,1.4-2.7,2.3-4.3,3.1c-3,1.4-5.4,3.6-7.1,6.5
				c-0.6,1.1-1.8,1.9-2.3,3c-0.4,1.1-0.5,2.3-0.3,3.5c0.2,1.1,0.6,2.3,1,3.4c-1.2-0.3-2.6-0.3-3.7-0.9c-2.2-1.4-4.4-2.9-6.5-4.5
				c-1-0.8-0.8-1.6,0.1-2.6c0.6-0.7,1.3-2,1.1-2.7c-0.9-2.2-1.9-4.3-3-6.4c-0.8-1.6-1.8-3.3-2.6-4.9c-0.7-1.7-2.2-2.9-4-3.1
				c-3.4-0.5-3.9-1.4-3.2-4.9c0.8-4.2-2.5-8-7.2-8.4c-2.9-0.2-5.8-1.1-8.2-2.7c-1.7-1.1-3.5-1.9-5.8-0.9c-0.9,0.4-2.5-0.2-3.5-0.7
				c-2.6-1.4-5-3.3-7.7-4.6c-1.5-0.7-3.2-1-4.9-0.9c-6,0.4-12,1-18,1.5c-1.4,0.1-2.9,0.4-4.9,0.7v-13.5c0-19.7,0.1-39.5,0-59.2
				c0-2.2,0.7-2.7,2.8-2.7c34.8,0.1,69.6,0.1,104.4,0c10.1,0,20.1,0.1,30.2,0.1C338.6,218.9,338.9,219,339.3,219.1z"/>
			<path class="st0" d="M341.6,258.7h3.8c28.1,0,56.1-0.1,84.2,0.2c4.5,0,6.7-2.7,9.8-4.6c0.9-0.5,1.9-0.9,3-1.1
				c1.7-0.4,3.4-0.6,5.1-0.5c4.4,0.5,9.1,0.4,12.5,4.1c0.5,0.5,0.4,1.5,0.8,2.2c0.8,1.8,2.2,2,3.3,0.4c0.6-1.3,2.1-2,3.5-1.8
				c2.6,0.3,4-1.5,3.5-4.2c-0.4-1.9-0.3-2.9,2-3c2.3-0.2,4.7-0.5,7-1c1.4-0.2,2.7-0.7,4.2-1c1.1-0.2,2.3-0.2,4.1-0.4
				c-0.7,3.1-1.2,5.7-1.9,8.2c-0.8,3-1.6,6.1-2.4,9.1c-0.8,3.4-1.8,6.8-2.4,10.1c-0.8,4.4-1.1,9-2.2,13.3c-0.7,3.1-2.4,6-3.6,8.9
				c-0.4,0.7-0.7,1.4-0.8,2.1c-0.4,4.6-3.1,7.4-6.8,9.9c-2,1.3-3.4,3.6-4.5,5.8c-1.4,2.7-2.2,5.7-3.4,8.5c-0.6,1.5-1.3,3-2.2,4.3
				c-1.9,2.6-2.9,5.8-2.9,9.1c-0.1,2.2-0.9,4.2-2.3,5.9c-2.4,3.3-4.1,7-5.3,11c-1.6,6.1-2.3,12.5-3.4,19c-0.3-0.1-1.1-0.5-2-0.8
				c-5.1-2.1-10.3-4.3-15.4-6.4c-0.4-0.3-0.7-0.8-0.9-1.3c-0.7-3-1.3-6-2.1-8.9c-0.8-2.8-5.9-4.4-8.6-2.7c-2.4,1.7-5.6,2-8.3,0.6
				c-0.9-0.5-2-0.6-3-0.4c-3.4,1.1-6.2-0.1-9-1.7c-1.1-0.6-7.1-0.6-8.1,0.1c-0.2,0.2-0.4,0.5-0.5,0.8c-1.1,2.7-2.3,3-3.9,0.5
				c-3-4.8-8.4-6.8-11.9-10.9c-0.7-0.7-1.2-1.6-1.4-2.6c0.1-2.4-0.5-4-3-4.6c-1.2-0.3-2.4-1-3.6-1.2c-1.3,0-2.5,0.1-3.8,0.4
				c-0.2-0.7-0.6-1.8-0.8-3c-0.5-2.8-4-4.8-7.9-4.8c-2.8,0-5.6-0.1-8.4-0.2L341.6,258.7z M439.9,346c-0.7-2.3-1.9-3.8-4-4.3
				c-1.4-0.4-4.2,2.1-4.6,3.7c-1,4.1,0.1,6.8,4.4,9.4c0.6-3,1.1-5.7,1.6-8.4L439.9,346z"/>
			<path class="st0" d="M389.1,353.7c1.8,0.1,4.3-0.3,7.1,1.2c2.2,1.1,5,2.2,8.3,1c1.7-0.6,4.6,1.1,6.6,2.3c1.5,1,1.9,1.2,2.7-0.6
				c1-2.3,3.4-2.4,5.4-2.4c1.6,0,2.9,1.2,2.9,2.8v0.1c0.3,1.5,0.8,3,1.4,4.4c0.1,0.4,0.6,0.9,0.5,1.1c-1.1,3.2,1.5,3.9,3.4,4.7
				c4.8,2.3,9.7,4.3,14.5,6.5c0.8,0.4,2,1.2,2,1.6c-0.2,1-0.8,1.8-1.7,2.3c-3.1,0.9-6.2,1.7-9.4,2.1c-5.7,0.7-11.5,1-16.2,4.8
				c-2.5,2.2-5,4.5-7.3,7c-2.4,2.5-6,4-5.8,8.7c-3.2-2.5-5.4-4.7-8.1-6.3c-2.4-1.5-5.2-2.2-7.8-3.4c-0.8-0.4-1.6-0.8-2.4-1.3
				c0.6-0.7,1.1-1.4,1.5-2.1c0.5-1,1.3-2.4,0.9-3c-0.7-1.1-1.8-1.9-3-2.2c-0.4-0.1-1.8,1.6-1.8,2.4c-0.1,1.9-1,2.6-2.5,3.5
				c-2.3,1.4-4.6,3-6.6,4.8c-3.2,2.8-4,3.1-7.7,1.2c-2.4-1.2-4.8-2.7-7.2-3.8c-3-1.2-6-2.2-9.1-3.1c-0.7-0.1-1.3,0.1-1.8,0.5
				c-1.5,1.9-2.7,0.9-4.2,0c-2.4-1.5-2.8-3.5-2.8-6.2c0.1-17.2,0-34.5,0-51.7c0-2.9,0.7-3.5,3.4-2c1.6,0.9,2.7,1.3,4.5,0.1
				c2.3-1.4,5.9,0.8,6.9,3.6c0.5,1.5,1.2,3,2,4.4c0.7,1.2,1.9,1.8,3,0.6c1.5-1.7,3-1,4.6-0.6c1.9,0.5,2.1,1.9,2,3.6
				c-0.2,3.3,2.8,4.4,4.6,6.1c2.2,2.1,4.8,3.7,7.1,5.7c1.2,1.2,2.3,2.4,3.4,3.7c1,1,2.1,2.2,3.5,1.1
				C387.2,356.1,388.2,354.9,389.1,353.7z"/>
			<path class="st0" d="M425.2,438.6c0,1.9,0,3.8,0,5.7s0.3,3.8-2.2,4.6c-0.5,0.2-0.7,1.7-0.7,2.7s0.5,2.4,0.1,3.3
				c-1.2,2.6-1.5,5.5-0.8,8.3c0,0.6-0.2,1.1-0.7,1.4c-0.7,0.1-1.3-0.1-1.9-0.4c-1.1-0.6-2.2-1.3-3.4-2c-0.6,1.5-1.2,3-1.8,4.5
				c-0.1,0.3,0.2,0.7,0.1,1c-0.3,0.6-0.7,1.3-1.2,1.5c-1.2,0.5-2.6,0.4-3.7,1c-3.2,1.8-8.7,1-10.7-2c-2.6-3.6-5.4-7.2-7.2-11.2
				c-1.4-3.2-1.4-7-2.2-10.4c-0.3-1.3-0.8-2.6-1.6-3.8c-2.5-3.6-4.1-7.8-4.6-12.1c-0.1-2.8,0-5.6,0.5-8.3c0.2-1.4,1.9-1.7,2.1-0.6
				c0.7,3.7,4.1,4.1,6.3,5.9c1.8,1.2,3.7,2.3,5.7,3.3c3.2,1.8,7.1,1.9,10.3,0.1c0.9-0.3,1.8-0.6,2.7-0.8c3.3-1,6.7-1.9,10-3
				c2.2-0.8,3.9-0.2,4.3,2.3C425.1,432.3,425.1,435.4,425.2,438.6L425.2,438.6z"/>
			<path class="st1" d="M229.4,37.6c-2.6,2.8-4.5,6.2-9.3,4.9c-1.7-0.5-3.7,0.2-5.6,0.3c-2.1,0.1-2.6-0.7-1.9-2.6
				c0.3-0.8,0.6-1.6,0.8-2.4c0.8-2.5,2.1-2.9,4.5-2.1c1.4,0.4,2.8,0.5,4.3,0.3C224.8,35.6,227.3,34.9,229.4,37.6z"/>
			<path class="st1" d="M294.4,356.1c-1.5-0.2-2.9-0.5-4.4-1c-0.8-0.3-2.1-1.4-2-2c0.2-1,1-1.9,1.9-2.3c2.8-0.8,5.6-1.3,8.4-1.9
				c0.1,0,0.2,0,0.3,0c1.9,1.1,3.7,2.4,6,2.6c-0.1,0.6,0,1.8-0.3,1.9c-2.7,0.9-5.5,1.7-8.3,2.5C295.5,356,294.9,356.1,294.4,356.1z"
				/>
			<path class="st0" d="M420.9,408.7c1.6,1.9,3.5,3.5,4.6,5.6c0.6,1.1-0.1,3-0.2,4.1c0.6,1,1,2.1,1.3,3.2c0,0.3-1.7,1.4-2.2,1.1
				c-1-0.6-1.8-1.4-2.3-2.4c-0.9-1.5-1.4-3.2-2.2-4.7S419.6,410.5,420.9,408.7z"/>
			<path class="st1" d="M292.4,71.6c-1.6,1-3.6,1-5.2,0c-2-1.1-2.2-3.1-0.4-4.5c0.9-0.7,1.2-3.3,3.4-1.6c1.1,0.9,2.7,1.4,1.1,3.3
				C290.8,69.1,291.9,70.5,292.4,71.6z"/>
			<path class="st0" d="M376,412.3c0.1,0.9,0.1,1.9-0.1,2.8c-0.1,0.5-0.8,1-1.3,1.4c-0.4-0.4-1.2-0.8-1.3-1.3
				c-0.3-1.7-0.5-3.5-0.4-5.3c0-0.6,1.2-1.1,1.9-1.6c0.5,0.5,0.8,1,1.1,1.6C376.1,410.8,376.1,411.5,376,412.3L376,412.3z"/>
			<path class="st1" d="M290.4,35.6c-0.1,0.4,0,0.7-0.2,0.8c-1.6,1.3-3.2,2.5-4.8,3.6c-0.4,0.1-0.8-0.1-1-0.4
				c-0.2-0.5-0.1-1.1,0.1-1.6c1-1.2,2.2-2.4,3.4-3.4c0.6-0.3,1.2-0.4,1.9-0.3C290.1,34.5,290.2,35.2,290.4,35.6z"/>
			<path class="st1" d="M324.6,99.3c-1.8,0.9-3.2,1.7-4.8,2.4c-0.5,0.1-1,0-1.3-0.3c-0.3-0.5-0.3-1.1-0.1-1.6
				C319.1,98,322.7,97.5,324.6,99.3z"/>
			<path class="st1" d="M434.5,351.4c-2.8-3.3-2.2-6.3,1.4-7.4C435.5,346.4,435,348.8,434.5,351.4z"/>
		</g>
		<circle id="brisbane" class="st2" cx="479.1" cy="233" r="5"/>
		<circle id="adelaide" class="st2" cx="311.7" cy="340.3" r="5"/>
		<circle id="broome" class="st2" cx="119.3" cy="112.8" r="5"/>
		<circle id="cairns" class="st2" cx="391.9" cy="102.7" r="5"/>
		<circle id="darwin" class="st2" cx="220.9" cy="50.7" r="5"/>
		<circle id="exmouth" class="st2" cx="24.5" cy="169.9" r="5"/>
		<circle id="hobart" class="st2" cx="412.9" cy="462.5" r="5"/>
		<circle id="melbourne" class="st2" cx="385.9" cy="382.4" r="5"/>
		<circle id="perth" class="st2" cx="46" cy="295.2" r="5"/>
		<circle id="sydney" class="st2" cx="456" cy="327.2" r="5"/>
		<rect y="0" class="st3" width="818.1" height="500"/>
		<circle id="sydney-2" class="st2" cx="643.6" cy="435.8" r="5"/>
		<circle id="sydney-3" class="st2" cx="708.5" cy="409.3" r="5"/>
		<circle id="sydney-4" class="st2" cx="742.9" cy="379.2" r="5"/>
		<circle id="sydney-5" class="st2" cx="735.8" cy="292.1" r="5"/>
		<circle id="cairns-2" class="st2" cx="425.3" cy="143.8" r="5"/>
		<circle id="cairns-3" class="st2" cx="484.1" cy="264.3" r="5"/>
		<circle id="adelaide_1_" class="st2" cx="258.2" cy="188.9" r="5"/>
	</g>
</g>
<g>
	<path class="st0" d="M96.4,198.5l5-6.6c0.5-0.6,0.9-1.1,1.4-1.7v0h-6v-1.6h8.5l0,1.3l-5,6.5c-0.5,0.6-0.9,1.2-1.4,1.7v0h6.5v1.6h-9
		V198.5z"/>
	<path class="st0" d="M117.4,194c0,4.1-2.9,5.9-5.5,5.9c-3,0-5.3-2.2-5.3-5.7c0-3.7,2.4-5.9,5.5-5.9
		C115.3,188.3,117.4,190.6,117.4,194z M108.6,194.1c0,2.4,1.4,4.3,3.4,4.3c1.9,0,3.4-1.8,3.4-4.3c0-1.9-0.9-4.3-3.3-4.3
		S108.6,192,108.6,194.1z"/>
	<path class="st0" d="M120,191.6c0-1.1,0-2.1-0.1-3h1.8l0.1,1.8h0c0.6-1.1,1.8-2.1,3.7-2.1c1.5,0,3.9,0.9,3.9,4.7v6.6h-2v-6.4
		c0-1.8-0.7-3.3-2.6-3.3c-1.3,0-2.4,0.9-2.7,2.1c-0.1,0.3-0.1,0.6-0.1,0.9v6.7h-2V191.6z"/>
	<path class="st0" d="M133.9,194.5c0,2.7,1.8,3.9,3.8,3.9c1.4,0,2.3-0.3,3.1-0.6l0.3,1.4c-0.7,0.3-1.9,0.7-3.7,0.7
		c-3.4,0-5.5-2.3-5.5-5.6s2-6,5.2-6c3.6,0,4.6,3.2,4.6,5.2c0,0.4,0,0.7-0.1,0.9H133.9z M139.8,193c0-1.3-0.5-3.3-2.8-3.3
		c-2,0-2.9,1.9-3.1,3.3H139.8z"/>
	<path class="st0" d="M148.5,199.7v-1.2l1.6-1.5c3.8-3.6,5.5-5.6,5.6-7.8c0-1.5-0.7-2.9-3-2.9c-1.4,0-2.5,0.7-3.2,1.3l-0.6-1.4
		c1-0.9,2.5-1.5,4.2-1.5c3.2,0,4.6,2.2,4.6,4.3c0,2.8-2,5-5.2,8l-1.2,1.1v0h6.7v1.7H148.5z"/>
</g>
<g>
	<path class="st1" d="M356.2,198.5l5-6.6c0.5-0.6,0.9-1.1,1.4-1.7v0h-6v-1.6h8.5l0,1.3l-5,6.5c-0.5,0.6-0.9,1.2-1.4,1.7v0h6.5v1.6
		h-9V198.5z"/>
	<path class="st1" d="M377.2,194c0,4.1-2.9,5.9-5.5,5.9c-3,0-5.3-2.2-5.3-5.7c0-3.7,2.4-5.9,5.5-5.9
		C375.1,188.3,377.2,190.6,377.2,194z M368.4,194.1c0,2.4,1.4,4.3,3.4,4.3c1.9,0,3.4-1.8,3.4-4.3c0-1.9-0.9-4.3-3.3-4.3
		S368.4,192,368.4,194.1z"/>
	<path class="st1" d="M379.8,191.6c0-1.1,0-2.1-0.1-3h1.8l0.1,1.8h0c0.6-1.1,1.8-2.1,3.7-2.1c1.5,0,3.9,0.9,3.9,4.7v6.6h-2v-6.4
		c0-1.8-0.7-3.3-2.6-3.3c-1.3,0-2.4,0.9-2.7,2.1c-0.1,0.3-0.1,0.6-0.1,0.9v6.7h-2V191.6z"/>
	<path class="st1" d="M393.7,194.5c0,2.7,1.8,3.9,3.8,3.9c1.4,0,2.3-0.3,3.1-0.6l0.3,1.4c-0.7,0.3-1.9,0.7-3.7,0.7
		c-3.4,0-5.5-2.3-5.5-5.6s2-6,5.2-6c3.6,0,4.6,3.2,4.6,5.2c0,0.4,0,0.7-0.1,0.9H393.7z M399.6,193c0-1.3-0.5-3.3-2.8-3.3
		c-2,0-2.9,1.9-3.1,3.3H399.6z"/>
	<path class="st1" d="M412.7,186.6L412.7,186.6L410,188l-0.4-1.5l3.3-1.7h1.7v14.9h-2V186.6z"/>
</g>
</svg>
