<?xml version="1.0" encoding="utf-8"?>
<!-- Generator: Adobe Illustrator 23.0.2, SVG Export Plug-In . SVG Version: 6.00 Build 0)  -->
<svg version="1.1" id="Layer_1" xmlns="http://www.w3.org/2000/svg" xmlns:xlink="http://www.w3.org/1999/xlink" x="0px" y="0px"
	 viewBox="0 0 500 500" style="enable-background:new 0 0 500 500;" xml:space="preserve">
<style type="text/css">
	.st0{fill:none;}
	.st1{fill:#383938;}
	.st2{fill:none;stroke:#F3931F;stroke-width:5;}
</style>
<g>
	<g id="Layer_1-2">
		<rect y="-1" class="st0" width="500" height="501"/>
		<path class="st1" d="M236.9,25.5v0.8h3.8L236.9,25.5 M263.1,34.3l3,5.6h1.5C268.4,36,266.7,34.6,263.1,34.3 M255.6,38.3
			c5.5,4.2,19.4,16.7,12,23.3c1.9,4.5,6,10.6,10.5,12l8.3-8l-8.3,12c7.3,5.5,12.8,13.6,18.1,21.1c0.6,0.9,4.9,8.4,6.1,4.4
			c0.8-2.7-6.1-12.2-6.9-15.9c4.7,4.6,4.6,12.4,12,13.7l-3.8-6.4l1.5-1.6l3.7,1.6l-0.7-3.2l2.2,2.4h3v1.6c-2.5,0.2-3.7,0.5-4.5,3.2
			l3.8,0.8v0.8l-3.8,4.9l3,7.2c-2.8-3.4-4.5-6.1-9-6.4c1,4,4.1,7,6.3,10.4c3.8,6,6.1,21.1,14.7,20.1l-3,3.2c1.6,5.9,2.2,13.3,9,12
			c-1.8,1.4-5.5,1.9-6.7,3.7c-2,2.9,0.6,4.7,3,4.3l0.8,4.8l-6,0.8c-0.6,7.7-1.8,21.4-8.3,25.9c-5.9,4.1-23.3,3.2-23.1,14.2
			c0.2,8.3,10.3,8.4,15.6,10.4c3.9,1.5,6.1,5.4,9.8,7.3c4,2.1,8.8,1.6,12.7,3.7c11.3,6.4,11.5,19,4.4,29.1c-4.1,6-9.6,10-13.9,15.6
			c-3.7,4.9,4.6,5.2,7.2,5.3c1,6,4.6,1.2,8.1,2.3c2.7,0.9,2.8,4.9,3.1,7.3c17.6-0.2,28.7-18.1,37.9-31.1c4.8-6.8,11.2-12.1,16-18.8
			c2.5-3.5,2.5-7.4,4.4-11.1c1.6-3.1,4.4-5,6.1-8.1l-7.5-0.8c-1.1-17,15.8-20.9,28.5-17.6l0.8,6.4l6-7.2c-3.7-3.6-1.5-8-1.5-12.9
			l12-6.4c-1.7-10.6,2.2-21.1,8.3-28.9v-0.8c-8.5-6.6-20.4-8-28.9-0.3c-3.5,3.1-4.5,7.4-9.3,9.1c-11.7,4.4-23.7-5.3-34.5-8.9
			c-5.3-1.7-8.7,0.3-12.7-4.8l7.5,3.2c-1.7-4-5.4-6.4-7.1-10.4c-2.5-6,0-15.2-5.7-19.3l-3,2.4v-0.8l4.5-2.4
			c-1.8-3.1-4.3-3.2-7.5-3.2c-0.8-6-4.6-7.1-9.8-7.2c0.5,3.4,3.1,4.3,4.1,7.3c0.8,2.6-1.1,5.1-0.1,7.8s4,4.8,3,8
			c-0.4,1.4-1.8,2.2-3.2,1.9c-0.4-0.1-0.8-0.3-1.1-0.6c-2-1.9-0.9-5.4-3.2-7.3c-2-1.5-4.7-0.9-7-1.8c-7-2.9-16.4-11.8-8.3-19.3
			c-1.6-4.4-5.2-11.3-9.7-12c0-4.1-0.2-6.9-4.5-7.2v-0.8l4.5-0.8l-1.5-3.2l3.8-0.8c-2-7.7-7.8-15.2-15-12l-3-3.2v-0.8h3
			c-1.9-6.4-13.3-8.3-18.7-9.6v2.4h-4.5l3-2.4c-1.9-6.7-5.6,0.2-7.5,3.2c-0.9-5.1-16.2-25.6-19.5-16.9 M316.3,81.9v3.2h3.8
			L316.3,81.9 M348.5,103.5c0.4-2.8-0.7-13.8-5.8-11.1C336.7,95.6,345.9,102.4,348.5,103.5 M332,96.3c1.4,2.7,2.6,2.8,5.3,1.6
			L332,96.3 M329,106l-1.5-3.2C324.3,104.7,325.8,106.7,329,106 M354.5,110c1.2,2.4,2,2.8,4.5,2.4l-1.5-3.2L354.5,110 M330.5,116.4
			l5.3,4.8l2.3-5.6L330.5,116.4 M377,145.1l-0.8,0.8v1.6l0.8,0.8h1.5l0.8-0.8V146l-0.8-0.8L377,145.1 M393.5,154.8l3.8,0.8
			L393.5,154.8 M251.1,247.1l0.8,3.2c-5-0.8-15,5.8-16.3,11.3c-1.1,4.4,1.3,9.4-0.1,13.6c-1.4,4.5-7,10.3-10.7,12.8
			c-3.1,2-6.9,1.3-9.5,4.3c-4.1,4.6-4,11.2-6.3,16.8c-3.2,7.8-8.8,14.5-15,19.9c-4.5,3.8-10.8,4.5-15.7,7.7
			c-7.5,4.9-14.2,13-21.8,17.2c-4.6,2.6-10.2,3.1-15,5.7c-4.5,2.5-8.6,7-13.5,8.6c-3.8,1.2-8.2-0.7-11.9,0.9s-6,6.3-9.8,8.4l0.8,2.4
			c-6.5,0.5-9.4,6.1-14.2,9.9c-3.3,2.6-7.5,3.7-8.2,8.5c-8.8,0.7-18.8,14.1-5.3,16.1v0.8h-5.2l1.5,3.2l-12-4L60,424.6l9.7-1.6v0.8
			c-3,1.2-8.5,4.5-2.3,5.6v0.8l-15,1.6l0.8,8l5.2-1.6l-1.5,4h4.5c-5.2,8.4,11.1,5.3,15.7,6.3c4.9,1.1,7.5-3.7,12-2.9s4.6,6,8.3,7.4
			c2.8,1,6-1.1,8.9-1s6,1.7,9,2.3v1.6l-4.5,1.6v1.6c6.8,2.4,12.7,1,19.5,0c1.3,6.6,9.7,3.8,14.2,2.9c12.4-2.3,22-7.6,31.3-17
			c1.9-1.9,2.6-4.6,4.8-6.3c4.8-3.6,13.6,0.2,14.2-7.8l-5.3,1.6c4.1-10.2,9.7-22.2,18-28.9c0.2-7.4,0.3-16.8,4.4-23
			c2.7-4.1,8-5.6,12.1-7.3c7.6-3.1,14.3-7.9,22.5-9.1c0.5-9.6,12.6,1.3,17.2,1.6v-4.8h0.8l1.5,4.8h0.8c9.4-8.3-2.7-10.7-9-12
			c0.2-2.7-0.7-5.4-0.1-8c2.4-9.7,11.9-7.4,17.6-13.3c3.9-4,5.3-10.5,8.8-14.8c8-9.7,18.2-16.8,24.6-28.1l-4.5-2.4l-2.9-8.8
			l11.2-10.5l-0.8-0.8l-18.7,6.4v-3.2l-8.3-4.8c-3.5,1.5-11.3,9.1-14.9,7.8c-4.1-1.5-2.1-13-2.4-16.6c-2.7-0.8-5.7,1-8.2-0.1
			c-3-1.4-4.8-5.8-1.4-7.8c2.2-1.3,5.7-0.1,8.1-0.1v-1.6L251.1,247.1 M290.1,261.6c4.4-0.5,7.2-2.5,8.2-7.2
			C293.1,254.5,291.2,256,290.1,261.6 M287.1,264v1.6c3.1,1.2,5.5,1.4,7.5-1.6l-3.7-1.6L287.1,264 M293.1,268.8
			c4.8,7.2,13.1-0.4,17.2-4C305.2,261.2,297.3,265.6,293.1,268.8 M66.7,408.5l-0.8,4l4.5,1.6l-0.8-5.6L66.7,408.5 M54,430.2h9
			C62.5,423.7,54.5,423.8,54,430.2z"/>
		<circle id="alice_springs" class="st2" cx="254.6" cy="350.7" r="5"/>
		<circle id="alice_springs-2" class="st2" cx="312.3" cy="102.2" r="5"/>
		<circle id="alice_springs-3" class="st2" cx="117.7" cy="406.5" r="5"/>
		<circle id="alice_springs_1_" class="st2" cx="322.4" cy="267.6" r="5"/>
	</g>
</g>
</svg>
